SplineFontDB: 3.0
FontName: DOF-3-Regular
FullName: DOF-3-Regular
FamilyName: DOF-3
Weight: Regular

StartChar: exclam
Encoding: 33 33 1
Width: 493
VWidth: 910
Flags: HW
LayerCount: 2
Fore
SplineSet
130 472 m 1
 130 819 l 1
 247 819 l 1
 363 819 l 1
 363 472 l 1
 363 125 l 1
 247 125 l 1
 130 125 l 1
 130 472 l 1
218 73 m 0
 278 78 345 65 360 46 c 0
 375 25 339 6 273 1 c 0
 258 0 235 0 220 1 c 0
 154 6 119 25 134 46 c 0
 144 59 177 69 218 73 c 0
EndSplineSet
EndChar

StartChar: quotedbl
Encoding: 34 34 2
Width: 506
VWidth: 910
Flags: HW
LayerCount: 2
Fore
SplineSet
-26 718 m 1
 -26 819 l 1
 90 819 l 1
 207 819 l 1
 207 718 l 1
 207 617 l 1
 90 617 l 1
 -26 617 l 1
 -26 718 l 1
299 718 m 1
 299 819 l 1
 416 819 l 1
 532 819 l 1
 532 718 l 1
 532 617 l 1
 416 617 l 1
 299 617 l 1
 299 718 l 1
EndSplineSet
EndChar

StartChar: numbersign
Encoding: 35 35 3
Width: 998
VWidth: 910
Flags: HW
LayerCount: 2
Fore
SplineSet
319 531 m 1
 360 614 l 1
 477 614 l 1
 593 614 l 2
 593 613 576 577 553 531 c 2
 512 448 l 1
 568 447 l 2
 599 447 624 447 624 448 c 2
 666 532 l 1
 706 614 l 1
 823 614 l 1
 939 614 l 2
 939 613 921 577 898 531 c 2
 857 448 l 1
 907 447 l 1
 955 447 l 1
 955 410 l 1
 955 373 l 1
 887 373 l 1
 821 373 l 1
 788 308 l 1
 756 242 l 1
 805 241 l 1
 853 241 l 1
 853 204 l 1
 853 167 l 1
 786 167 l 1
 720 167 l 1
 679 84 l 1
 638 0 l 1
 522 0 l 1
 405 0 l 2
 405 1 423 38 446 84 c 2
 487 167 l 1
 431 167 l 2
 400 167 374 168 374 167 c 2
 332 83 l 1
 292 0 l 1
 176 0 l 1
 59 0 l 2
 59 1 77 38 100 84 c 2
 141 167 l 1
 92 167 l 1
 44 167 l 1
 44 205 l 1
 44 241 l 1
 111 241 l 1
 177 242 l 1
 210 308 l 1
 242 373 l 1
 194 373 l 1
 146 373 l 1
 146 411 l 1
 146 447 l 1
 212 447 l 1
 279 448 l 1
 319 531 l 1
581 358 m 1
 588 373 l 1
 532 373 l 1
 475 373 l 1
 473 369 l 2
 471 366 461 343 449 319 c 0
 437 294 424 267 419 258 c 2
 411 241 l 1
 467 241 l 1
 523 242 l 1
 548 292 l 1
 581 358 l 1
EndSplineSet
EndChar

StartChar: dollar
Encoding: 36 36 4
Width: 884
VWidth: 910
Flags: HW
LayerCount: 2
Fore
SplineSet
360 776 m 1
 360 819 l 1
 442 819 l 1
 524 819 l 1
 524 776 l 1
 524 732 l 1
 527 732 l 2
 529 732 538 732 548 731 c 0
 596 728 635 723 670 716 c 0
 734 703 769 685 786 652 c 0
 795 637 796 625 796 595 c 2
 796 573 l 1
 680 573 l 1
 563 573 l 1
 563 594 l 2
 563 619 562 626 557 637 c 0
 552 645 546 654 541 655 c 0
 539 655 535 656 531 657 c 2
 524 657 l 1
 524 549 l 1
 524 441 l 1
 526 441 l 2
 527 440 533 440 539 439 c 0
 556 437 593 432 612 428 c 0
 715 407 770 371 789 315 c 0
 799 284 799 235 787 200 c 0
 773 159 749 136 697 117 c 0
 657 102 599 92 538 88 c 1
 525 88 l 1
 524 44 l 1
 524 0 l 1
 442 0 l 1
 360 0 l 1
 360 44 l 1
 360 87 l 1
 358 87 l 2
 356 87 347 87 337 88 c 0
 289 91 250 96 215 103 c 0
 151 116 116 134 99 167 c 0
 90 182 88 194 88 224 c 2
 88 246 l 1
 205 246 l 1
 321 246 l 1
 321 225 l 2
 321 200 323 193 328 183 c 0
 333 174 339 165 344 164 c 0
 346 164 350 163 354 162 c 2
 360 162 l 1
 360 270 l 1
 360 379 l 1
 345 380 l 2
 295 385 242 395 209 407 c 0
 133 432 97 466 86 522 c 0
 84 531 84 536 84 554 c 0
 84 582 86 598 93 620 c 0
 99 639 110 657 124 669 c 0
 152 694 204 714 273 724 c 0
 294 727 324 730 342 730 c 0
 348 731 356 731 358 732 c 2
 360 732 l 1
 360 776 l 1
360 560 m 0
 360 612 361 654 360 654 c 0
 357 654 347 648 342 643 c 0
 325 626 317 596 317 554 c 0
 317 538 317 533 319 525 c 0
 324 505 329 492 341 480 c 0
 347 473 358 465 360 465 c 0
 361 465 360 508 360 560 c 0
538 340 m 0
 533 345 529 349 527 350 c 2
 524 351 l 1
 524 259 l 2
 524 208 524 167 525 167 c 0
 527 167 534 172 539 177 c 0
 545 183 550 193 554 205 c 0
 563 230 566 269 561 294 c 0
 557 314 550 328 538 340 c 0
EndSplineSet
EndChar

StartChar: percent
Encoding: 37 37 5
Width: 1099
VWidth: 910
Flags: HW
LayerCount: 2
Fore
SplineSet
251 861 m 0
 258 861 272 862 284 862 c 0
 374 862 449 843 484 810 c 0
 501 795 515 768 521 735 c 0
 527 702 528 685 528 613 c 0
 529 551 528 538 524 515 c 0
 524 510 523 505 523 505 c 2
 524 505 591 576 674 662 c 2
 823 819 l 1
 938 819 l 1
 1055 819 l 1
 1052 816 l 1
 1027 791 699 445 696 441 c 2
 692 436 l 1
 704 439 l 2
 781 456 888 453 954 431 c 0
 980 422 1004 409 1016 395 c 0
 1040 370 1051 331 1055 267 c 0
 1056 244 1056 172 1055 148 c 0
 1051 76 1037 34 1011 9 c 0
 999 -3 976 -16 955 -23 c 0
 877 -49 750 -49 673 -23 c 0
 651 -16 628 -3 615 9 c 0
 597 25 584 53 578 90 c 0
 572 121 571 155 571 223 c 0
 572 270 571 283 574 305 c 0
 575 310 576 314 575 314 c 2
 575 314 509 243 426 157 c 2
 278 0 l 1
 161 0 l 2
 96 0 45 0 45 1 c 1
 46 1 128 87 227 192 c 0
 327 298 409 384 409 384 c 1
 409 384 403 382 397 381 c 0
 320 364 212 368 146 390 c 0
 120 399 96 411 84 425 c 0
 62 448 51 482 46 538 c 0
 44 556 44 669 46 688 c 0
 50 730 54 756 66 780 c 0
 78 804 94 819 123 833 c 0
 154 848 200 857 251 861 c 0
291 709 m 0
 291 714 290 725 289 730 c 2
 286 741 l 1
 284 729 l 2
 279 697 278 681 278 613 c 0
 277 545 278 531 284 501 c 2
 286 488 l 1
 288 492 l 2
 290 502 292 520 294 535 c 0
 295 549 295 562 295 613 c 0
 295 673 295 684 291 709 c 0
816 319 m 0
 815 325 814 331 814 331 c 2
 813 331 809 313 808 302 c 0
 804 280 805 269 804 223 c 0
 804 157 805 123 811 93 c 2
 813 80 l 2
 814 80 817 99 819 111 c 0
 821 132 822 146 823 193 c 0
 823 259 821 292 816 319 c 0
EndSplineSet
EndChar

StartChar: ampersand
Encoding: 38 38 6
Width: 884
VWidth: 910
Flags: HW
LayerCount: 2
Fore
SplineSet
391 824 m 0
 406 825 505 824 517 823 c 0
 601 817 654 801 691 773 c 0
 721 751 738 717 744 671 c 0
 746 655 747 604 745 591 c 0
 741 555 727 525 702 498 c 0
 678 473 638 449 587 427 c 0
 569 419 536 407 500 393 c 0
 486 388 474 384 474 384 c 2
 473 383 487 363 503 340 c 0
 528 305 566 257 596 222 c 2
 613 202 l 1
 717 202 l 1
 822 202 l 1
 822 177 l 2
 822 144 820 129 814 109 c 0
 806 86 791 67 776 54 c 2
 771 50 l 1
 781 42 l 2
 806 25 832 9 851 4 c 2
 861 0 l 1
 745 0 l 2
 645 0 629 0 624 2 c 0
 619 3 618 3 608 2 c 0
 562 -3 533 -5 449 -5 c 0
 364 -6 339 -3 296 3 c 0
 210 15 153 40 123 80 c 0
 98 114 86 160 88 231 c 0
 89 249 89 254 91 264 c 0
 103 320 141 362 214 398 c 2
 228 404 l 1
 221 414 l 2
 175 488 145 553 140 595 c 0
 138 607 139 654 142 671 c 0
 147 717 164 751 194 773 c 0
 235 804 297 820 391 824 c 0
471 748 m 2
 466 751 l 1
 442 751 l 1
 419 751 l 1
 414 748 l 2
 407 743 395 731 390 724 c 0
 378 702 373 677 372 630 c 0
 371 595 373 582 384 552 c 0
 393 527 414 479 418 479 c 0
 419 479 425 481 431 485 c 0
 479 511 503 540 511 583 c 0
 513 595 513 647 511 667 c 0
 507 692 502 709 494 724 c 0
 489 732 477 744 471 748 c 2
354 234 m 0
 348 241 339 253 334 258 c 0
 328 265 326 268 326 266 c 0
 319 244 321 181 329 146 c 0
 334 121 344 101 358 87 c 0
 372 75 382 70 397 69 c 0
 409 68 473 68 498 69 c 2
 514 69 l 1
 504 78 l 2
 458 118 403 174 354 234 c 0
EndSplineSet
EndChar

StartChar: parenleft
Encoding: 40 40 7
Width: 341
VWidth: 910
Flags: HW
LayerCount: 2
Fore
SplineSet
61 868 m 2
 63 870 l 1
 180 870 l 1
 298 870 l 1
 298 834 l 1
 298 796 l 1
 295 796 l 2
 292 795 289 786 287 776 c 0
 280 742 277 630 277 410 c 0
 277 190 280 77 287 43 c 0
 289 33 292 25 295 24 c 2
 298 23 l 1
 298 -15 l 1
 298 -51 l 1
 180 -51 l 1
 63 -51 l 1
 61 -49 l 2
 47 -35 44 51 44 410 c 0
 44 769 47 854 61 868 c 2
EndSplineSet
EndChar

StartChar: parenright
Encoding: 41 41 8
Width: 341
VWidth: 910
Flags: HW
LayerCount: 2
Fore
SplineSet
44 834 m 1
 44 870 l 1
 161 870 l 1
 279 870 l 1
 280 868 l 2
 294 854 298 769 298 410 c 0
 298 51 294 -35 280 -49 c 2
 279 -51 l 1
 161 -51 l 1
 44 -51 l 1
 44 -15 l 1
 44 23 l 1
 46 24 l 2
 49 25 53 33 55 43 c 0
 62 77 65 190 65 410 c 0
 65 630 62 742 55 776 c 0
 53 786 49 795 46 796 c 2
 44 796 l 1
 44 834 l 1
EndSplineSet
EndChar

StartChar: asterisk
Encoding: 42 42 9
Width: 796
VWidth: 910
Flags: HW
LayerCount: 2
Fore
SplineSet
361 787 m 2
 361 819 l 1
 399 819 l 1
 435 819 l 1
 435 787 l 2
 435 769 435 755 436 755 c 2
 436 755 446 760 458 767 c 0
 471 774 481 780 482 780 c 0
 483 781 492 772 509 755 c 0
 534 729 534 729 532 728 c 0
 531 727 517 719 501 709 c 0
 485 700 471 693 471 692 c 1
 470 692 484 683 502 673 c 0
 519 663 534 654 534 654 c 1
 534 654 523 642 509 627 c 2
 482 602 l 1
 459 615 l 1
 436 629 l 1
 435 596 l 1
 435 563 l 1
 398 563 l 1
 361 563 l 1
 361 596 l 1
 361 629 l 1
 338 615 l 1
 314 602 l 1
 288 627 l 2
 274 642 262 654 262 654 c 1
 262 654 277 663 294 673 c 0
 312 683 327 692 326 692 c 1
 326 693 312 700 296 709 c 0
 280 719 265 727 264 728 c 0
 262 729 263 729 288 755 c 0
 305 772 314 781 315 780 c 0
 316 780 326 774 339 767 c 0
 351 760 360 755 360 755 c 2
 361 755 361 769 361 787 c 2
EndSplineSet
EndChar

StartChar: plus
Encoding: 43 43 10
Width: 998
VWidth: 910
Flags: HW
LayerCount: 2
Fore
SplineSet
382 480 m 1
 382 614 l 1
 500 614 l 1
 616 614 l 1
 616 480 l 1
 616 344 l 1
 786 344 l 1
 955 344 l 1
 955 308 l 1
 955 270 l 1
 786 270 l 1
 616 270 l 1
 616 136 l 1
 616 0 l 1
 500 0 l 1
 382 0 l 1
 382 136 l 1
 382 270 l 1
 213 270 l 1
 44 270 l 1
 44 308 l 1
 44 344 l 1
 213 344 l 1
 382 344 l 1
 382 480 l 1
EndSplineSet
EndChar

StartChar: comma
Encoding: 44 44 11
Width: 290
VWidth: 910
Flags: HW
LayerCount: 2
Fore
SplineSet
124 73 m 0
 126 73 135 74 144 74 c 0
 201 74 253 60 261 42 c 0
 264 35 261 -11 255 -43 c 0
 250 -71 242 -98 231 -124 c 0
 226 -139 212 -168 208 -174 c 0
 205 -178 195 -184 186 -188 c 0
 170 -194 147 -199 122 -201 c 0
 106 -203 68 -202 53 -200 c 0
 9 -194 -20 -182 -22 -167 c 0
 -22 -164 -21 -162 -14 -147 c 0
 11 -96 23 -47 28 11 c 0
 29 17 29 26 29 31 c 0
 29 41 31 44 36 49 c 0
 49 61 85 70 124 73 c 0
EndSplineSet
EndChar

StartChar: hyphen
Encoding: 45 45 12
Width: 998
VWidth: 910
Flags: HW
LayerCount: 2
Fore
SplineSet
44 308 m 1
 44 344 l 1
 500 344 l 1
 955 344 l 1
 955 308 l 1
 955 270 l 1
 500 270 l 1
 44 270 l 1
 44 308 l 1
EndSplineSet
EndChar

StartChar: period
Encoding: 46 46 13
Width: 290
VWidth: 910
Flags: HW
LayerCount: 2
Fore
SplineSet
117 73 m 0
 169 77 226 68 250 53 c 0
 257 48 262 41 262 37 c 0
 262 29 251 20 236 14 c 0
 174 -10 52 -1 31 29 c 0
 27 35 27 39 31 45 c 0
 40 59 74 69 117 73 c 0
EndSplineSet
EndChar

StartChar: slash
Encoding: 47 47 14
Width: 695
VWidth: 910
Flags: HW
LayerCount: 2
Fore
SplineSet
232 411 m 2
 419 819 l 1
 534 819 l 2
 645 819 651 819 651 817 c 0
 650 816 566 633 463 408 c 2
 278 0 l 1
 161 0 l 2
 50 0 45 0 45 2 c 0
 46 3 129 186 232 411 c 2
EndSplineSet
EndChar

StartChar: zero
Encoding: 48 48 15
Width: 884
VWidth: 910
Flags: HW
LayerCount: 2
Fore
SplineSet
407 824 m 0
 419 825 490 824 502 823 c 0
 508 822 522 821 532 820 c 0
 637 809 709 778 745 729 c 0
 774 690 791 631 797 553 c 0
 801 515 801 499 801 410 c 0
 801 321 801 304 797 266 c 0
 790 175 767 111 729 73 c 0
 690 34 624 9 532 -1 c 0
 499 -5 485 -5 442 -5 c 0
 399 -5 386 -5 353 -1 c 0
 248 11 176 41 140 90 c 0
 111 129 93 188 87 266 c 0
 83 304 84 321 84 410 c 0
 84 499 83 515 87 553 c 0
 95 657 124 726 173 761 c 0
 223 798 298 819 407 824 c 0
466 749 m 0
 458 751 432 751 424 750 c 0
 416 748 412 747 402 742 c 0
 384 733 370 718 358 697 c 0
 334 657 323 604 318 515 c 0
 316 488 316 331 318 304 c 0
 323 215 334 162 358 122 c 0
 370 100 385 85 405 76 c 0
 419 69 423 69 442 69 c 0
 461 69 466 69 480 76 c 0
 500 85 515 100 527 122 c 0
 551 162 562 215 567 304 c 0
 569 331 569 488 567 515 c 0
 562 604 551 657 527 697 c 0
 518 713 507 726 494 735 c 0
 487 740 473 746 466 749 c 0
EndSplineSet
EndChar

StartChar: one
Encoding: 49 49 16
Width: 616
VWidth: 910
Flags: HW
LayerCount: 2
Fore
SplineSet
160 685 m 1
 294 819 l 1
 411 819 l 1
 528 819 l 1
 528 410 l 1
 528 0 l 1
 411 0 l 1
 295 0 l 1
 295 293 l 1
 295 586 l 1
 277 569 l 1
 259 551 l 1
 142 551 l 1
 26 551 l 1
 160 685 l 1
EndSplineSet
EndChar

StartChar: two
Encoding: 50 50 17
Width: 884
VWidth: 910
Flags: HW
LayerCount: 2
Fore
SplineSet
363 824 m 0
 388 825 513 824 531 823 c 0
 600 818 646 809 687 793 c 0
 717 782 742 765 757 748 c 0
 776 726 788 699 793 664 c 0
 798 635 798 586 794 563 c 0
 785 510 761 466 717 422 c 0
 681 386 644 361 553 306 c 0
 474 258 450 241 421 218 c 0
 377 183 350 148 335 110 c 0
 330 100 325 80 325 76 c 0
 325 74 331 74 561 74 c 2
 796 74 l 1
 796 37 l 1
 796 0 l 1
 442 0 l 1
 88 0 l 1
 88 37 l 2
 88 68 88 74 89 74 c 0
 90 74 91 75 92 79 c 0
 100 118 117 153 143 187 c 0
 165 213 190 236 227 263 c 0
 256 284 276 297 343 338 c 0
 409 377 436 394 462 416 c 0
 522 464 551 507 561 566 c 0
 563 576 563 581 563 606 c 0
 563 655 558 683 546 708 c 0
 540 720 533 728 524 736 c 0
 518 741 506 747 500 749 c 0
 493 751 413 752 387 750 c 0
 357 749 350 747 342 739 c 0
 334 730 328 717 324 700 c 0
 322 693 322 687 321 664 c 2
 321 637 l 1
 205 637 l 1
 88 637 l 1
 88 665 l 2
 89 690 89 696 91 704 c 0
 100 745 121 771 160 788 c 0
 206 808 273 820 363 824 c 0
EndSplineSet
EndChar

StartChar: three
Encoding: 51 51 18
Width: 884
VWidth: 910
Flags: HW
LayerCount: 2
Fore
SplineSet
345 827 m 0
 354 828 427 827 437 826 c 0
 442 826 461 826 480 825 c 0
 529 824 553 822 583 818 c 0
 637 812 680 800 714 783 c 0
 747 768 766 747 781 721 c 0
 796 691 802 657 802 599 c 0
 802 541 796 507 781 477 c 0
 767 451 747 432 716 416 c 2
 705 410 l 1
 715 405 l 2
 747 390 767 369 782 341 c 0
 797 312 802 277 802 221 c 0
 802 154 794 116 772 84 c 0
 742 40 679 13 583 1 c 0
 553 -3 528 -4 481 -5 c 0
 463 -6 442 -6 436 -7 c 0
 419 -9 343 -9 323 -7 c 0
 243 -2 172 13 137 29 c 0
 119 37 104 49 96 61 c 0
 89 72 89 75 88 101 c 2
 88 125 l 1
 205 125 l 1
 321 125 l 1
 321 105 l 2
 321 83 322 79 327 74 c 0
 330 71 331 70 339 69 c 0
 363 64 380 64 401 66 c 0
 410 68 430 67 456 68 c 0
 478 68 498 69 501 70 c 0
 516 73 533 83 543 98 c 0
 556 116 562 137 567 171 c 0
 569 190 569 251 567 271 c 0
 562 304 556 325 543 343 c 0
 533 357 517 368 502 371 c 0
 498 372 464 372 411 373 c 2
 326 373 l 1
 326 411 l 1
 326 447 l 1
 402 447 l 2
 482 447 500 448 508 451 c 0
 535 460 554 484 562 521 c 0
 572 561 572 637 562 678 c 0
 554 713 536 737 511 746 c 0
 503 750 497 750 456 751 c 0
 430 752 410 752 401 754 c 0
 380 756 363 755 339 750 c 0
 331 749 330 748 327 745 c 0
 322 740 321 737 321 715 c 2
 321 694 l 1
 205 694 l 1
 88 694 l 1
 88 718 l 2
 89 744 89 747 96 758 c 0
 107 774 127 788 157 798 c 0
 193 811 264 822 323 826 c 0
 331 827 341 827 345 827 c 0
EndSplineSet
EndChar

StartChar: four
Encoding: 52 52 19
Width: 818
VWidth: 910
Flags: HW
LayerCount: 2
Fore
SplineSet
258 812 m 2
 261 819 l 1
 343 819 l 2
 408 819 424 819 424 818 c 0
 423 817 391 751 353 671 c 0
 315 591 283 524 282 523 c 0
 282 522 288 522 312 522 c 2
 343 522 l 1
 343 569 l 1
 343 614 l 1
 460 614 l 1
 576 614 l 1
 576 569 l 1
 576 522 l 1
 675 522 l 1
 775 522 l 1
 775 486 l 1
 775 449 l 1
 675 449 l 1
 576 449 l 1
 576 225 l 1
 576 0 l 1
 460 0 l 1
 343 0 l 1
 343 225 l 1
 343 449 l 1
 213 449 l 2
 110 449 84 449 84 450 c 0
 85 451 123 531 169 628 c 0
 215 724 256 807 258 812 c 2
EndSplineSet
EndChar

StartChar: five
Encoding: 53 53 20
Width: 884
VWidth: 910
Flags: HW
LayerCount: 2
Fore
SplineSet
88 642 m 1
 88 819 l 1
 442 819 l 1
 796 819 l 1
 796 783 l 1
 796 745 l 1
 559 745 l 1
 321 745 l 1
 321 681 l 1
 321 617 l 1
 328 617 l 2
 353 620 461 621 500 619 c 0
 627 614 708 586 751 536 c 0
 780 501 795 457 800 388 c 0
 802 367 802 248 800 227 c 0
 795 158 780 114 751 79 c 0
 717 38 658 13 571 2 c 0
 529 -4 490 -5 412 -5 c 0
 339 -4 316 -3 272 2 c 0
 222 7 176 17 150 30 c 0
 118 45 100 65 91 93 c 0
 89 100 89 102 88 126 c 2
 88 151 l 1
 209 151 l 2
 324 151 330 151 330 149 c 0
 328 144 321 113 321 111 c 0
 321 106 324 95 328 89 c 0
 332 81 338 73 343 72 c 0
 351 70 373 69 426 69 c 0
 477 69 481 69 486 70 c 0
 499 74 509 81 521 92 c 0
 544 116 558 150 564 201 c 0
 568 228 568 242 568 308 c 0
 568 373 568 386 564 414 c 0
 558 464 544 498 521 522 c 0
 509 533 499 540 486 544 c 0
 481 545 477 545 426 545 c 0
 373 545 351 544 343 542 c 0
 338 541 332 533 328 525 c 0
 324 519 321 508 321 503 c 0
 321 501 328 470 330 465 c 0
 330 463 324 463 209 463 c 2
 88 463 l 1
 88 642 l 1
EndSplineSet
EndChar

StartChar: six
Encoding: 54 54 21
Width: 884
VWidth: 910
Flags: HW
LayerCount: 2
Fore
SplineSet
365 824 m 0
 379 825 451 825 474 824 c 0
 603 819 684 800 720 766 c 0
 732 755 743 737 748 720 c 0
 750 712 750 710 751 685 c 2
 751 659 l 1
 631 659 l 2
 547 659 510 659 510 660 c 0
 510 661 511 668 514 677 c 0
 518 692 518 695 518 702 c 0
 516 717 510 730 502 740 c 0
 496 746 494 747 485 748 c 0
 476 749 441 751 424 751 c 0
 412 751 411 751 406 748 c 0
 386 737 367 716 357 694 c 0
 352 684 344 664 340 649 c 0
 337 638 333 616 333 615 c 2
 333 615 341 616 349 617 c 0
 386 620 456 621 500 619 c 0
 627 614 708 586 751 536 c 0
 776 505 791 468 797 417 c 0
 801 388 801 375 801 308 c 0
 801 240 801 226 797 198 c 0
 791 146 776 109 751 79 c 0
 713 33 641 6 537 -2 c 0
 467 -8 370 -6 313 2 c 0
 226 13 168 38 134 79 c 0
 109 109 93 146 87 198 c 0
 83 228 83 238 84 335 c 0
 84 428 83 456 87 504 c 0
 92 595 107 666 127 709 c 0
 162 777 244 818 365 824 c 0
487 544 m 0
 482 545 477 545 448 546 c 0
 429 546 410 545 406 545 c 0
 387 543 365 527 350 503 c 0
 332 475 323 441 318 385 c 0
 316 364 316 250 318 229 c 0
 322 182 328 150 341 124 c 0
 352 103 371 84 389 75 c 0
 400 70 400 69 442 69 c 0
 484 69 485 70 496 75 c 0
 514 84 532 103 543 124 c 0
 556 150 563 182 567 229 c 0
 569 250 569 364 567 385 c 0
 563 432 556 465 543 491 c 0
 529 516 508 537 487 544 c 0
EndSplineSet
EndChar

StartChar: seven
Encoding: 55 55 22
Width: 796
VWidth: 910
Flags: HW
LayerCount: 2
Fore
SplineSet
44 783 m 1
 44 819 l 1
 390 819 l 1
 736 819 l 1
 736 782 l 1
 736 745 l 1
 570 373 l 2
 479 168 404 1 403 1 c 1
 403 0 351 0 287 0 c 2
 170 1 l 1
 337 373 l 1
 503 745 l 1
 273 745 l 1
 44 745 l 1
 44 783 l 1
EndSplineSet
EndChar

StartChar: eight
Encoding: 56 56 23
Width: 884
VWidth: 910
Flags: HW
LayerCount: 2
Fore
SplineSet
382 824 m 0
 397 825 517 824 530 823 c 0
 627 816 690 799 733 768 c 0
 769 743 786 705 791 644 c 0
 792 628 792 591 791 574 c 0
 787 516 770 476 736 451 c 0
 727 445 714 437 706 433 c 0
 703 432 702 431 702 431 c 1
 702 431 706 428 711 426 c 0
 745 409 766 388 781 360 c 0
 796 328 802 294 802 231 c 0
 802 167 796 134 781 103 c 0
 764 69 737 45 693 28 c 0
 652 11 602 1 528 -4 c 0
 504 -6 381 -6 357 -4 c 0
 283 1 233 11 192 28 c 0
 148 45 121 69 104 103 c 0
 89 134 83 167 83 231 c 0
 83 294 89 328 104 360 c 0
 119 388 140 409 174 426 c 0
 179 428 183 431 183 431 c 1
 183 431 181 432 178 433 c 0
 163 440 143 455 134 464 c 0
 105 496 93 536 93 609 c 0
 93 644 95 667 100 690 c 0
 109 725 126 750 152 768 c 0
 195 799 264 818 358 823 c 0
 368 824 378 824 382 824 c 0
488 750 m 0
 475 751 408 751 395 750 c 0
 381 749 372 745 360 734 c 0
 336 713 326 674 326 609 c 0
 326 534 339 494 370 475 c 0
 383 468 390 467 442 467 c 0
 494 467 501 468 514 475 c 0
 545 494 559 534 559 609 c 0
 559 674 549 713 525 734 c 0
 513 745 504 749 488 750 c 0
499 391 m 0
 494 392 407 393 394 392 c 0
 377 390 363 384 349 370 c 0
 333 352 323 325 318 285 c 0
 316 265 316 197 318 177 c 0
 323 134 333 108 352 89 c 0
 363 78 374 73 387 70 c 0
 394 68 491 68 498 70 c 0
 511 73 521 78 532 89 c 0
 551 108 562 134 567 177 c 0
 569 197 569 265 567 285 c 0
 562 328 551 353 532 372 c 0
 521 382 512 388 499 391 c 0
EndSplineSet
EndChar

StartChar: nine
Encoding: 57 57 24
Width: 884
VWidth: 910
Flags: HW
LayerCount: 2
Fore
SplineSet
382 824 m 0
 406 825 476 825 500 824 c 0
 627 819 708 791 751 741 c 0
 776 710 791 673 797 622 c 0
 801 591 802 581 801 484 c 0
 801 391 801 363 797 316 c 0
 791 204 772 125 743 87 c 0
 705 36 639 6 543 -4 c 0
 524 -6 453 -7 414 -5 c 0
 282 0 201 18 165 53 c 0
 153 64 142 82 137 99 c 0
 135 107 135 109 134 134 c 2
 134 160 l 1
 254 160 l 2
 338 160 375 160 375 159 c 0
 375 158 373 151 370 142 c 0
 366 127 367 124 367 117 c 0
 369 102 374 89 382 79 c 0
 388 73 391 72 400 71 c 0
 409 70 444 68 461 68 c 0
 473 68 474 68 479 71 c 0
 499 82 518 103 528 125 c 0
 533 135 540 155 544 170 c 0
 547 181 552 203 552 204 c 2
 552 204 544 203 536 202 c 0
 499 199 429 198 386 200 c 0
 258 205 177 233 134 284 c 0
 105 319 90 362 85 431 c 0
 83 452 83 572 85 593 c 0
 90 662 105 706 134 741 c 0
 176 791 257 819 382 824 c 0
487 749 m 0
 482 750 477 750 448 751 c 0
 429 751 410 750 406 750 c 0
 387 748 365 732 350 708 c 0
 332 680 323 646 318 590 c 0
 316 569 316 455 318 434 c 0
 322 387 328 355 341 329 c 0
 352 308 371 288 389 279 c 0
 400 274 400 274 442 274 c 0
 484 274 485 274 496 279 c 0
 514 288 532 308 543 329 c 0
 556 355 563 387 567 434 c 0
 569 455 569 569 567 590 c 0
 563 637 556 669 543 695 c 0
 529 720 508 742 487 749 c 0
EndSplineSet
EndChar

StartChar: colon
Encoding: 58 58 25
Width: 290
VWidth: 910
Flags: HW
LayerCount: 2
Fore
SplineSet
117 613 m 0
 169 617 226 608 250 593 c 0
 257 588 262 582 262 578 c 0
 262 570 251 560 236 554 c 0
 174 530 52 540 31 570 c 0
 27 576 27 579 31 585 c 0
 40 599 74 609 117 613 c 0
117 73 m 0
 169 77 226 68 250 53 c 0
 257 48 262 41 262 37 c 0
 262 29 251 20 236 14 c 0
 174 -10 52 -1 31 29 c 0
 27 35 27 39 31 45 c 0
 40 59 74 69 117 73 c 0
EndSplineSet
EndChar

StartChar: semicolon
Encoding: 59 59 26
Width: 290
VWidth: 910
Flags: HW
LayerCount: 2
Fore
SplineSet
117 613 m 0
 169 617 226 608 250 593 c 0
 257 588 262 582 262 578 c 0
 262 570 251 560 236 554 c 0
 174 530 52 540 31 570 c 0
 27 576 27 579 31 585 c 0
 40 599 74 609 117 613 c 0
124 73 m 0
 126 73 135 74 144 74 c 0
 201 74 253 60 261 42 c 0
 264 35 261 -11 255 -43 c 0
 250 -71 242 -98 231 -124 c 0
 226 -139 212 -168 208 -174 c 0
 205 -178 195 -184 186 -188 c 0
 170 -194 147 -199 122 -201 c 0
 106 -203 68 -202 53 -200 c 0
 9 -194 -20 -182 -22 -167 c 0
 -22 -164 -21 -162 -14 -147 c 0
 11 -96 23 -47 28 11 c 0
 29 17 29 26 29 31 c 0
 29 41 31 44 36 49 c 0
 49 61 85 70 124 73 c 0
EndSplineSet
EndChar

StartChar: less
Encoding: 60 60 27
Width: 998
VWidth: 910
Flags: HW
LayerCount: 2
Fore
SplineSet
499 491 m 2
 685 565 837 625 837 625 c 2
 838 625 838 603 838 577 c 2
 838 530 l 1
 559 419 l 2
 406 357 280 307 281 307 c 2
 281 307 407 257 560 196 c 2
 838 85 l 1
 838 37 l 1
 838 -11 l 1
 838 -11 686 50 500 124 c 2
 161 259 l 1
 161 308 l 1
 161 355 l 1
 499 491 l 2
EndSplineSet
EndChar

StartChar: equal
Encoding: 61 61 28
Width: 998
VWidth: 910
Flags: HW
LayerCount: 2
Fore
SplineSet
44 410 m 1
 44 447 l 1
 500 447 l 1
 955 447 l 1
 955 410 l 1
 955 372 l 1
 500 372 l 1
 44 372 l 1
 44 410 l 1
44 205 m 1
 44 242 l 1
 500 242 l 1
 955 242 l 1
 955 205 l 1
 955 167 l 1
 500 167 l 1
 44 167 l 1
 44 205 l 1
EndSplineSet
EndChar

StartChar: greater
Encoding: 62 62 29
Width: 998
VWidth: 910
Flags: HW
LayerCount: 2
Fore
SplineSet
160 577 m 1
 160 625 l 1
 160 625 313 565 500 491 c 2
 838 355 l 1
 838 307 l 1
 838 259 l 1
 500 124 l 2
 313 50 160 -11 160 -11 c 1
 160 37 l 1
 161 85 l 1
 439 196 l 2
 592 257 717 307 717 307 c 2
 718 307 593 357 440 419 c 2
 161 530 l 1
 160 577 l 1
EndSplineSet
EndChar

StartChar: question
Encoding: 63 63 30
Width: 796
VWidth: 910
Flags: HW
LayerCount: 2
Fore
SplineSet
340 824 m 0
 355 825 471 824 483 823 c 0
 553 818 604 807 644 791 c 0
 712 762 744 716 751 634 c 0
 753 617 753 529 751 513 c 0
 746 468 736 437 718 412 c 0
 695 379 649 349 596 334 c 0
 575 327 545 321 525 319 c 2
 515 318 l 1
 515 221 l 1
 515 125 l 1
 399 125 l 1
 281 125 l 1
 281 260 l 1
 281 396 l 1
 368 396 l 1
 454 396 l 1
 461 400 l 2
 497 425 513 455 518 516 c 0
 520 531 520 616 518 632 c 0
 514 666 509 689 498 708 c 0
 488 725 472 740 457 746 c 0
 448 750 440 751 399 751 c 0
 357 751 349 750 340 746 c 0
 325 740 309 725 299 708 c 0
 288 689 283 667 279 634 c 0
 278 628 278 604 277 580 c 2
 277 536 l 1
 160 536 l 1
 44 536 l 1
 44 581 l 2
 45 627 45 638 49 660 c 0
 56 706 75 741 106 764 c 0
 127 780 148 790 176 799 c 0
 220 814 268 821 340 824 c 0
370 73 m 0
 422 77 479 68 503 53 c 0
 510 48 515 41 515 37 c 0
 515 32 510 26 503 21 c 0
 467 -4 363 -7 308 14 c 0
 293 20 281 29 281 36 c 0
 281 41 286 48 293 53 c 0
 308 62 337 70 370 73 c 0
EndSplineSet
EndChar

StartChar: at
Encoding: 64 64 31
Width: 1188
VWidth: 910
Flags: HW
LayerCount: 2
Fore
SplineSet
505 807 m 0
 532 808 683 807 705 806 c 0
 818 800 892 785 954 755 c 0
 1000 733 1031 706 1056 669 c 0
 1062 658 1075 631 1080 618 c 0
 1098 569 1106 513 1106 420 c 0
 1106 404 1106 385 1105 380 c 0
 1101 347 1090 317 1073 294 c 0
 1046 258 1005 237 942 230 c 0
 915 227 878 227 851 231 c 2
 842 233 l 1
 841 226 l 1
 830 175 801 146 744 129 c 0
 706 117 653 112 589 113 c 0
 573 114 554 114 549 115 c 0
 461 123 405 146 380 185 c 0
 360 215 350 254 345 319 c 0
 343 341 343 464 345 486 c 0
 350 550 360 588 380 618 c 0
 405 657 461 680 549 688 c 0
 554 689 573 689 589 690 c 0
 697 692 770 675 807 640 c 0
 830 619 842 589 845 546 c 0
 846 538 846 489 846 433 c 2
 846 334 l 1
 852 334 l 2
 856 334 859 335 860 335 c 0
 862 337 868 358 870 370 c 0
 872 380 872 385 873 410 c 0
 874 475 869 532 860 571 c 0
 845 641 810 690 758 715 c 0
 723 731 696 735 594 735 c 0
 492 735 465 731 431 715 c 0
 414 707 402 699 387 684 c 0
 359 658 339 619 329 571 c 0
 320 530 316 485 316 401 c 0
 316 353 316 322 319 296 c 0
 326 210 348 154 393 115 c 0
 411 98 430 85 449 75 c 0
 461 69 475 62 477 62 c 0
 478 62 478 64 478 66 c 2
 478 68 l 1
 594 68 l 1
 711 68 l 1
 711 48 l 2
 711 27 710 25 705 20 c 0
 699 14 688 9 667 3 c 0
 642 -4 614 -10 583 -14 c 0
 557 -18 542 -18 513 -19 c 0
 429 -21 347 -6 283 21 c 0
 230 43 179 78 150 113 c 0
 129 138 112 170 102 205 c 0
 92 239 86 278 84 331 c 0
 83 359 83 442 84 472 c 0
 87 535 93 578 108 618 c 0
 113 631 127 658 133 669 c 0
 158 705 188 731 232 753 c 0
 297 786 382 802 505 807 c 0
621 628 m 0
 616 631 615 631 604 631 c 2
 593 631 l 1
 585 627 l 2
 560 614 545 583 537 532 c 0
 532 501 530 468 530 401 c 0
 530 334 532 301 537 270 c 0
 545 219 560 189 585 176 c 2
 593 172 l 1
 604 172 l 2
 615 172 616 172 621 175 c 0
 628 178 639 190 644 198 c 0
 652 213 656 231 658 257 c 0
 659 264 659 316 659 401 c 0
 659 486 659 539 658 547 c 0
 656 572 652 590 644 605 c 0
 639 613 628 625 621 628 c 0
EndSplineSet
EndChar

StartChar: A
Encoding: 65 65 32
Width: 942
VWidth: 910
Flags: HW
LayerCount: 2
Fore
SplineSet
188 411 m 2
 319 819 l 1
 471 819 l 1
 624 819 l 1
 755 411 l 2
 827 187 885 3 886 2 c 2
 886 0 l 1
 769 0 l 1
 654 0 l 1
 622 134 l 2
 605 207 590 272 588 277 c 2
 586 286 l 1
 471 286 l 1
 356 286 l 1
 354 277 l 2
 352 272 337 207 320 134 c 2
 289 0 l 1
 173 0 l 1
 56 0 l 1
 56 2 l 2
 57 3 116 187 188 411 c 2
520 567 m 2
 494 680 471 774 471 775 c 0
 471 776 448 682 422 568 c 2
 373 360 l 1
 422 360 l 1
 520 360 l 1
 569 360 l 1
 520 567 l 2
EndSplineSet
EndChar

StartChar: B
Encoding: 66 66 33
Width: 884
VWidth: 910
Flags: HW
LayerCount: 2
Fore
SplineSet
88 410 m 1
 88 819 l 1
 199 819 l 2
 308 819 347 819 402 816 c 0
 557 808 666 783 722 745 c 0
 753 722 774 692 786 655 c 0
 794 631 797 614 796 587 c 0
 794 549 789 518 775 492 c 0
 758 456 729 432 684 414 c 0
 679 412 675 411 675 411 c 2
 676 411 681 409 687 406 c 0
 710 397 725 389 740 378 c 0
 778 349 800 299 802 233 c 0
 803 206 800 188 792 165 c 0
 781 130 760 100 731 79 c 0
 714 66 696 56 673 48 c 0
 607 24 519 10 404 4 c 0
 349 1 308 0 199 0 c 2
 88 0 l 1
 88 410 l 1
346 744 m 0
 333 745 323 745 322 745 c 0
 321 745 321 714 321 596 c 2
 321 447 l 1
 359 447 l 2
 451 447 484 450 509 464 c 0
 515 467 519 470 525 476 c 0
 549 499 561 535 563 587 c 0
 565 633 550 674 523 702 c 0
 509 715 501 720 485 725 c 0
 454 735 412 741 346 744 c 0
421 372 m 0
 408 373 380 373 359 373 c 2
 321 373 l 1
 321 224 l 1
 321 75 l 1
 335 75 l 1
 414 79 458 84 490 95 c 0
 504 100 509 102 519 109 c 0
 543 129 560 160 566 195 c 0
 568 204 568 209 568 226 c 0
 568 273 557 312 537 337 c 0
 516 362 490 369 421 372 c 0
EndSplineSet
EndChar

StartChar: C
Encoding: 67 67 34
Width: 884
VWidth: 910
Flags: HW
LayerCount: 2
Fore
SplineSet
399 824 m 0
 417 825 527 824 550 823 c 0
 613 819 658 814 698 803 c 0
 768 786 802 761 817 714 c 0
 822 699 824 688 824 661 c 2
 824 637 l 1
 703 637 l 1
 582 637 l 1
 586 655 l 2
 591 675 592 677 589 691 c 0
 586 713 575 735 561 743 c 0
 551 748 527 750 469 750 c 0
 420 751 420 751 405 743 c 0
 385 734 370 719 358 697 c 0
 334 657 323 604 318 515 c 0
 316 488 316 331 318 304 c 0
 323 215 334 162 358 122 c 0
 370 100 385 85 405 76 c 0
 420 68 420 68 469 69 c 0
 527 69 551 71 561 76 c 0
 575 84 586 106 589 128 c 0
 592 142 591 144 586 164 c 2
 582 182 l 1
 703 182 l 1
 824 182 l 1
 824 158 l 2
 824 131 822 121 817 106 c 0
 802 59 768 33 698 16 c 0
 658 5 612 0 550 -4 c 0
 522 -6 429 -6 404 -5 c 0
 270 1 182 34 140 90 c 0
 111 129 93 188 87 266 c 0
 83 304 84 321 84 410 c 0
 84 499 83 515 87 553 c 0
 94 644 118 708 156 746 c 0
 201 791 283 818 399 824 c 0
EndSplineSet
EndChar

StartChar: D
Encoding: 68 68 35
Width: 862
VWidth: 910
Flags: HW
LayerCount: 2
Fore
SplineSet
88 410 m 1
 88 819 l 1
 205 819 l 2
 269 819 321 819 321 818 c 2
 321 818 329 817 339 817 c 0
 439 813 533 798 599 774 c 0
 672 748 721 711 752 660 c 0
 759 649 771 625 775 613 c 0
 789 576 796 536 800 480 c 0
 802 457 802 363 800 340 c 0
 795 272 785 225 765 183 c 0
 752 157 738 136 719 117 c 0
 675 73 606 41 515 23 c 0
 463 12 400 5 339 2 c 0
 329 2 321 1 321 1 c 2
 321 0 269 0 205 0 c 2
 88 0 l 1
 88 410 l 1
335 742 m 0
 330 743 324 743 323 744 c 2
 321 744 l 1
 321 410 l 1
 321 76 l 1
 323 76 l 2
 324 77 330 76 335 77 c 0
 359 78 391 84 410 89 c 0
 454 103 489 127 513 158 c 0
 552 211 569 284 569 410 c 0
 569 536 552 608 513 661 c 0
 489 692 454 716 410 730 c 0
 391 735 359 741 335 742 c 0
EndSplineSet
EndChar

StartChar: E
Encoding: 69 69 36
Width: 862
VWidth: 910
Flags: HW
LayerCount: 2
Fore
SplineSet
88 410 m 1
 88 819 l 1
 442 819 l 1
 796 819 l 1
 796 783 l 1
 796 745 l 1
 559 745 l 1
 321 745 l 1
 321 596 l 1
 321 447 l 1
 534 447 l 1
 746 447 l 1
 746 410 l 1
 746 372 l 1
 534 372 l 1
 321 372 l 1
 321 223 l 1
 321 74 l 1
 559 74 l 1
 796 74 l 1
 796 37 l 1
 796 0 l 1
 442 0 l 1
 88 0 l 1
 88 410 l 1
EndSplineSet
EndChar

StartChar: F
Encoding: 70 70 37
Width: 862
VWidth: 910
Flags: HW
LayerCount: 2
Fore
SplineSet
88 410 m 1
 88 819 l 1
 442 819 l 1
 796 819 l 1
 796 783 l 1
 796 745 l 1
 559 745 l 1
 321 745 l 1
 321 596 l 1
 321 447 l 1
 534 447 l 1
 746 447 l 1
 746 410 l 1
 746 372 l 1
 534 372 l 1
 321 372 l 1
 321 187 l 1
 321 0 l 1
 205 0 l 1
 88 0 l 1
 88 410 l 1
EndSplineSet
EndChar

StartChar: G
Encoding: 71 71 38
Width: 884
VWidth: 910
Flags: HW
LayerCount: 2
Fore
SplineSet
399 824 m 0
 417 825 527 824 550 823 c 0
 613 819 658 814 698 803 c 0
 768 786 802 761 817 714 c 0
 822 699 824 688 824 661 c 2
 824 637 l 1
 703 637 l 1
 582 637 l 1
 586 655 l 2
 591 675 592 677 589 691 c 0
 586 713 575 735 561 743 c 0
 551 748 527 750 469 750 c 0
 420 751 420 751 405 743 c 0
 385 734 370 719 358 697 c 0
 334 657 323 604 318 515 c 0
 316 488 316 331 318 304 c 0
 323 215 334 162 358 122 c 0
 370 100 385 85 405 76 c 0
 420 68 420 68 469 69 c 0
 527 69 551 71 561 76 c 0
 570 81 579 95 584 110 c 0
 590 127 591 126 591 256 c 2
 591 373 l 1
 577 373 l 2
 570 373 540 372 506 369 c 0
 474 366 447 364 445 364 c 2
 442 364 l 1
 442 410 l 1
 442 455 l 1
 445 455 l 2
 447 455 473 454 501 451 c 2
 553 447 l 1
 688 447 l 1
 824 447 l 1
 824 291 l 2
 824 117 823 126 817 106 c 0
 802 59 768 33 698 16 c 0
 658 5 612 0 550 -4 c 0
 522 -6 429 -6 404 -5 c 0
 270 1 182 34 140 90 c 0
 111 129 93 188 87 266 c 0
 83 304 84 321 84 410 c 0
 84 499 83 515 87 553 c 0
 94 644 118 708 156 746 c 0
 201 791 283 818 399 824 c 0
EndSplineSet
EndChar

StartChar: H
Encoding: 72 72 39
Width: 884
VWidth: 910
Flags: HW
LayerCount: 2
Fore
SplineSet
88 410 m 1
 88 819 l 1
 205 819 l 1
 321 819 l 1
 321 652 l 1
 321 484 l 1
 442 484 l 1
 563 484 l 1
 563 652 l 1
 563 819 l 1
 680 819 l 1
 796 819 l 1
 796 410 l 1
 796 0 l 1
 680 0 l 1
 563 0 l 1
 563 206 l 1
 563 411 l 1
 442 411 l 1
 321 411 l 1
 321 206 l 1
 321 0 l 1
 205 0 l 1
 88 0 l 1
 88 410 l 1
EndSplineSet
EndChar

StartChar: I
Encoding: 73 73 40
Width: 530
VWidth: 910
Flags: HW
LayerCount: 2
Fore
SplineSet
148 410 m 1
 148 819 l 1
 266 819 l 1
 382 819 l 1
 382 410 l 1
 382 0 l 1
 266 0 l 1
 148 0 l 1
 148 410 l 1
EndSplineSet
EndChar

StartChar: J
Encoding: 74 74 41
Width: 740
VWidth: 910
Flags: HW
LayerCount: 2
Fore
SplineSet
419 524 m 2
 419 819 l 1
 535 819 l 1
 652 819 l 1
 652 522 l 2
 651 218 651 221 647 190 c 0
 642 139 628 101 605 73 c 0
 581 45 538 23 480 12 c 0
 403 -3 293 -3 216 12 c 0
 158 23 114 45 90 73 c 0
 67 101 53 139 48 190 c 0
 44 215 45 227 44 282 c 2
 44 337 l 1
 165 337 l 2
 248 337 286 337 286 336 c 0
 286 335 284 327 281 317 c 2
 277 299 l 1
 277 265 l 2
 278 228 278 212 281 190 c 0
 288 132 306 93 333 77 c 0
 338 74 339 75 348 75 c 0
 357 75 357 74 362 77 c 0
 389 93 407 132 414 190 c 0
 418 223 418 215 419 524 c 2
EndSplineSet
EndChar

StartChar: K
Encoding: 75 75 42
Width: 862
VWidth: 910
Flags: HW
LayerCount: 2
Fore
SplineSet
88 410 m 1
 88 819 l 1
 205 819 l 1
 321 819 l 1
 321 706 l 1
 321 593 l 2
 322 593 387 644 467 706 c 2
 611 819 l 1
 727 819 l 1
 843 819 l 1
 655 672 l 2
 551 591 467 524 466 523 c 0
 465 522 496 477 639 267 c 0
 734 126 814 8 816 5 c 2
 819 0 l 1
 703 0 l 1
 586 1 l 1
 469 215 l 2
 404 333 351 430 350 431 c 0
 350 433 347 430 335 421 c 2
 322 411 l 1
 321 206 l 1
 321 0 l 1
 205 0 l 1
 88 0 l 1
 88 410 l 1
EndSplineSet
EndChar

StartChar: L
Encoding: 76 76 43
Width: 841
VWidth: 910
Flags: HW
LayerCount: 2
Fore
SplineSet
88 410 m 1
 88 819 l 1
 205 819 l 1
 321 819 l 1
 321 447 l 1
 321 74 l 1
 560 74 l 1
 797 74 l 1
 797 37 l 1
 797 0 l 1
 443 0 l 1
 88 0 l 1
 88 410 l 1
EndSplineSet
EndChar

StartChar: M
Encoding: 77 77 44
Width: 1289
VWidth: 910
Flags: HW
LayerCount: 2
Fore
SplineSet
88 812 m 2
 88 819 l 1
 205 819 l 1
 321 819 l 1
 477 505 l 2
 562 333 634 185 638 178 c 2
 645 165 l 1
 806 492 l 1
 968 819 l 1
 1085 819 l 1
 1201 819 l 1
 1201 812 l 2
 1202 808 1213 625 1227 407 c 0
 1241 188 1252 7 1252 4 c 2
 1252 0 l 1
 1136 0 l 1
 1019 1 l 1
 1005 224 l 2
 998 347 991 449 991 451 c 0
 991 456 989 453 858 228 c 2
 726 1 l 1
 645 1 l 1
 563 1 l 1
 431 228 l 2
 300 453 299 456 299 451 c 0
 299 449 292 347 285 224 c 2
 270 1 l 1
 154 0 l 1
 37 0 l 1
 38 4 l 2
 38 7 49 188 63 407 c 0
 77 625 87 808 88 812 c 2
EndSplineSet
EndChar

StartChar: N
Encoding: 78 78 45
Width: 884
VWidth: 910
Flags: HW
LayerCount: 2
Fore
SplineSet
88 410 m 1
 88 819 l 1
 205 819 l 1
 321 819 l 1
 442 574 l 1
 563 330 l 1
 563 575 l 1
 563 819 l 1
 680 819 l 1
 796 819 l 1
 796 410 l 1
 796 0 l 1
 680 0 l 1
 563 1 l 1
 442 245 l 1
 322 489 l 1
 321 244 l 1
 321 0 l 1
 205 0 l 1
 88 0 l 1
 88 410 l 1
EndSplineSet
EndChar

StartChar: O
Encoding: 79 79 46
Width: 1144
VWidth: 910
Flags: HW
LayerCount: 2
Fore
SplineSet
483 824 m 0
 536 826 654 825 698 822 c 0
 859 812 963 773 1019 701 c 0
 1054 655 1074 600 1080 523 c 0
 1083 496 1083 465 1083 410 c 0
 1083 324 1080 281 1072 241 c 0
 1063 191 1045 153 1019 118 c 0
 963 46 859 7 698 -3 c 0
 636 -7 508 -7 447 -3 c 0
 285 7 181 46 125 118 c 0
 84 171 66 233 62 336 c 0
 61 365 61 454 62 484 c 0
 65 564 75 615 99 661 c 0
 135 732 199 776 301 801 c 0
 352 814 411 821 483 824 c 0
641 750 m 0
 616 751 526 751 501 750 c 0
 479 749 462 748 448 744 c 0
 396 733 353 698 328 646 c 0
 308 605 298 558 295 482 c 0
 294 452 294 368 295 339 c 0
 299 249 312 193 341 149 c 0
 366 111 404 85 448 76 c 0
 472 71 501 68 573 68 c 0
 644 68 672 71 696 76 c 0
 748 87 791 121 816 173 c 0
 836 214 846 263 849 339 c 0
 850 368 850 452 849 482 c 0
 845 571 832 626 803 670 c 0
 778 708 740 735 696 744 c 0
 681 748 666 749 641 750 c 0
EndSplineSet
EndChar

StartChar: P
Encoding: 80 80 47
Width: 862
VWidth: 910
Flags: HW
LayerCount: 2
Fore
SplineSet
88 410 m 1
 88 819 l 1
 199 819 l 2
 308 819 349 819 404 816 c 0
 531 809 628 791 692 763 c 0
 704 758 720 749 731 740 c 0
 776 707 802 653 802 596 c 0
 802 539 776 485 731 452 c 0
 709 436 684 424 649 413 c 0
 576 391 484 380 356 375 c 2
 321 374 l 1
 321 187 l 1
 321 0 l 1
 205 0 l 1
 88 0 l 1
 88 410 l 1
367 743 m 0
 357 743 343 744 335 745 c 2
 321 745 l 1
 321 596 l 1
 321 448 l 1
 335 448 l 1
 414 452 458 457 490 468 c 0
 504 473 509 475 519 482 c 0
 533 494 545 510 553 528 c 0
 583 590 568 670 519 710 c 0
 509 717 504 720 490 725 c 0
 463 734 422 740 367 743 c 0
EndSplineSet
EndChar

StartChar: Q
Encoding: 81 81 48
Width: 1144
VWidth: 910
Flags: HW
LayerCount: 2
Fore
SplineSet
483 824 m 0
 536 826 654 825 698 822 c 0
 859 812 963 773 1019 701 c 0
 1054 655 1074 600 1080 523 c 0
 1083 496 1083 465 1083 410 c 0
 1083 310 1080 265 1067 218 c 0
 1058 183 1044 151 1025 126 c 2
 1020 119 l 1
 1023 115 l 2
 1039 92 1051 66 1056 40 c 0
 1059 28 1060 13 1060 5 c 2
 1060 0 l 1
 939 0 l 1
 818 0 l 1
 818 6 l 2
 818 9 818 12 817 12 c 2
 817 12 810 11 802 9 c 0
 771 4 735 0 698 -3 c 0
 636 -7 508 -7 447 -3 c 0
 285 7 181 46 125 118 c 0
 84 171 66 233 62 336 c 0
 61 365 61 454 62 484 c 0
 65 564 75 615 99 661 c 0
 135 732 199 776 301 801 c 0
 352 814 411 821 483 824 c 0
641 750 m 0
 616 751 526 751 501 750 c 0
 479 749 462 748 448 744 c 0
 396 733 353 698 328 646 c 0
 308 605 298 558 295 482 c 0
 294 452 294 368 295 339 c 0
 299 249 312 193 341 149 c 0
 366 111 404 85 448 76 c 0
 472 71 501 68 573 68 c 0
 624 68 656 69 674 72 c 0
 712 76 742 88 768 111 c 0
 780 121 781 121 776 126 c 0
 770 134 753 150 744 156 c 0
 724 171 698 180 675 183 c 0
 670 183 698 184 745 184 c 2
 822 184 l 1
 825 191 l 2
 840 229 846 273 849 339 c 0
 850 368 850 452 849 482 c 0
 845 571 832 626 803 670 c 0
 778 708 740 735 696 744 c 0
 681 748 666 749 641 750 c 0
EndSplineSet
EndChar

StartChar: R
Encoding: 82 82 49
Width: 884
VWidth: 910
Flags: HW
LayerCount: 2
Fore
SplineSet
88 410 m 1
 88 819 l 1
 199 819 l 2
 304 819 338 818 393 816 c 0
 530 811 637 793 706 765 c 0
 734 754 761 736 778 718 c 0
 830 662 842 585 809 519 c 0
 789 477 753 446 706 427 c 0
 659 408 594 393 513 384 c 0
 506 384 500 383 500 383 c 2
 500 382 842 21 857 6 c 2
 862 0 l 1
 745 0 l 1
 629 0 l 1
 475 162 l 1
 322 324 l 1
 321 162 l 1
 321 0 l 1
 205 0 l 1
 88 0 l 1
 88 410 l 1
355 744 m 0
 341 745 329 745 326 745 c 2
 321 745 l 1
 321 596 l 1
 321 448 l 1
 326 448 l 2
 337 448 381 449 400 451 c 0
 453 454 494 462 519 471 c 0
 524 473 530 476 535 479 c 0
 546 486 561 500 569 512 c 0
 608 569 601 650 553 698 c 0
 541 710 531 718 519 722 c 0
 487 734 433 741 355 744 c 0
EndSplineSet
EndChar

StartChar: S
Encoding: 83 83 50
Width: 884
VWidth: 910
Flags: HW
LayerCount: 2
Fore
SplineSet
371 824 m 0
 396 825 492 825 519 824 c 0
 611 820 678 808 725 788 c 0
 764 771 785 745 794 704 c 0
 796 696 795 690 796 665 c 2
 796 637 l 1
 675 637 l 2
 560 637 554 637 554 639 c 0
 555 640 557 648 560 658 c 0
 564 673 563 676 563 684 c 0
 561 707 553 726 542 739 c 0
 534 746 528 748 501 750 c 0
 478 751 410 751 394 750 c 0
 377 749 367 745 354 735 c 0
 336 720 324 694 319 657 c 0
 314 630 315 589 319 573 c 0
 330 519 374 480 455 454 c 0
 470 449 483 446 529 435 c 0
 582 422 627 407 666 388 c 0
 741 352 782 306 794 249 c 0
 798 232 798 185 793 156 c 0
 787 113 770 80 745 59 c 0
 709 27 646 7 563 -1 c 0
 528 -5 516 -4 457 -5 c 0
 366 -6 314 -3 263 5 c 0
 223 10 186 20 160 31 c 0
 121 48 100 75 91 117 c 0
 89 124 89 129 88 154 c 2
 88 182 l 1
 209 182 l 2
 324 182 330 182 330 180 c 0
 329 179 328 171 325 162 c 0
 321 146 321 144 321 137 c 0
 323 113 331 93 342 80 c 0
 350 72 357 70 387 69 c 0
 413 67 493 68 500 70 c 0
 506 72 518 78 524 83 c 0
 533 91 540 99 546 112 c 0
 558 136 563 163 563 210 c 0
 564 238 562 244 557 259 c 0
 545 295 514 327 467 350 c 0
 443 361 417 370 386 377 c 0
 349 386 327 390 312 395 c 0
 227 420 163 454 127 491 c 0
 105 515 92 541 86 570 c 0
 82 586 81 633 86 660 c 0
 92 706 110 741 137 762 c 0
 184 799 260 819 371 824 c 0
EndSplineSet
EndChar

StartChar: T
Encoding: 84 84 51
Width: 841
VWidth: 910
Flags: HW
LayerCount: 2
Fore
SplineSet
66 783 m 1
 66 819 l 1
 421 819 l 1
 775 819 l 1
 775 783 l 1
 775 745 l 1
 656 745 l 1
 537 745 l 1
 537 373 l 1
 537 0 l 1
 421 0 l 1
 304 0 l 1
 304 373 l 1
 304 745 l 1
 186 745 l 1
 66 745 l 1
 66 783 l 1
EndSplineSet
EndChar

StartChar: U
Encoding: 85 85 52
Width: 884
VWidth: 910
Flags: HW
LayerCount: 2
Fore
SplineSet
88 503 m 2
 88 819 l 1
 205 819 l 1
 321 819 l 1
 321 515 l 2
 321 317 321 207 322 197 c 0
 326 143 336 112 358 89 c 0
 372 76 383 70 398 69 c 0
 410 68 475 68 487 69 c 0
 502 70 513 76 527 89 c 0
 535 97 540 105 545 116 c 0
 555 135 561 160 563 197 c 0
 564 207 563 317 563 515 c 2
 563 819 l 1
 680 819 l 1
 796 819 l 1
 796 503 l 2
 795 216 796 187 795 176 c 0
 790 142 785 124 774 102 c 0
 761 77 742 58 716 42 c 0
 673 17 615 2 526 -4 c 0
 503 -6 382 -6 360 -4 c 0
 279 1 224 14 182 35 c 0
 165 43 145 57 135 68 c 0
 113 91 99 120 94 156 c 0
 89 183 89 163 88 503 c 2
EndSplineSet
EndChar

StartChar: V
Encoding: 86 86 53
Width: 942
VWidth: 910
Flags: HW
LayerCount: 2
Fore
SplineSet
56 817 m 2
 56 819 l 1
 173 819 l 1
 289 819 l 1
 380 433 l 2
 430 221 471 47 471 46 c 0
 471 45 508 198 563 431 c 2
 654 819 l 1
 769 819 l 1
 886 819 l 1
 886 817 l 2
 885 816 827 632 755 408 c 2
 624 0 l 1
 471 0 l 1
 319 0 l 1
 188 408 l 2
 116 632 57 816 56 817 c 2
EndSplineSet
EndChar

StartChar: W
Encoding: 87 87 54
Width: 1346
VWidth: 910
Flags: HW
LayerCount: 2
Fore
SplineSet
16 816 m 2
 15 819 l 1
 132 819 l 2
 224 819 248 819 248 818 c 0
 249 817 285 662 329 474 c 0
 372 286 408 131 408 131 c 2
 408 130 450 262 500 424 c 2
 592 718 l 1
 674 718 l 1
 755 718 l 1
 847 424 l 2
 897 262 938 130 938 131 c 2
 938 131 975 286 1018 474 c 0
 1062 662 1097 817 1098 818 c 0
 1098 819 1122 819 1214 819 c 2
 1331 819 l 1
 1330 816 l 2
 1330 815 1287 631 1236 408 c 2
 1141 1 l 1
 944 0 l 1
 745 0 l 1
 745 2 l 2
 744 3 729 79 709 170 c 0
 690 261 674 337 674 337 c 2
 674 338 657 262 637 170 c 0
 617 78 601 3 601 2 c 0
 601 0 590 0 402 0 c 2
 205 1 l 1
 110 408 l 2
 59 631 16 815 16 816 c 2
EndSplineSet
EndChar

StartChar: X
Encoding: 88 88 55
Width: 884
VWidth: 910
Flags: HW
LayerCount: 2
Fore
SplineSet
65 819 m 2
 181 819 l 1
 298 819 l 1
 370 692 l 2
 410 623 442 565 442 565 c 1
 442 565 475 623 515 692 c 2
 588 819 l 1
 704 819 l 1
 820 819 l 2
 820 818 754 729 673 621 c 0
 592 512 525 422 525 421 c 0
 525 420 593 328 677 215 c 0
 760 102 830 8 832 5 c 2
 836 0 l 1
 719 0 l 1
 603 0 l 1
 522 139 l 2
 478 215 442 279 442 279 c 1
 442 279 406 215 362 139 c 2
 282 0 l 1
 166 0 l 1
 49 0 l 1
 53 5 l 2
 55 8 125 102 208 215 c 0
 292 328 360 420 360 421 c 0
 360 422 293 512 212 621 c 0
 131 729 65 818 65 819 c 2
EndSplineSet
EndChar

StartChar: Y
Encoding: 89 89 56
Width: 884
VWidth: 910
Flags: HW
LayerCount: 2
Fore
SplineSet
63 818 m 2
 63 819 114 819 179 819 c 2
 296 819 l 1
 303 808 l 2
 308 802 311 797 311 797 c 2
 313 797 324 783 380 704 c 0
 415 656 441 617 442 617 c 0
 443 617 470 656 505 704 c 0
 543 759 568 793 572 796 c 0
 575 799 579 805 583 810 c 2
 590 819 l 1
 705 819 l 2
 770 819 822 819 822 818 c 2
 822 818 816 810 809 801 c 0
 803 791 796 782 796 780 c 0
 795 777 751 714 677 610 c 2
 559 443 l 1
 559 221 l 1
 559 0 l 1
 442 0 l 1
 326 0 l 1
 326 221 l 1
 326 443 l 1
 211 605 l 2
 148 693 95 769 93 772 c 0
 91 776 89 779 88 780 c 0
 88 782 82 791 76 801 c 0
 69 810 63 818 63 818 c 2
EndSplineSet
EndChar

StartChar: Z
Encoding: 90 90 57
Width: 841
VWidth: 910
Flags: HW
LayerCount: 2
Fore
SplineSet
66 783 m 1
 66 819 l 1
 432 819 l 1
 798 819 l 1
 797 817 l 2
 784 798 775 782 775 780 c 2
 775 780 774 778 773 776 c 0
 772 774 671 615 548 423 c 2
 325 75 l 1
 550 74 l 1
 775 74 l 1
 775 36 l 1
 775 0 l 1
 409 0 l 1
 43 0 l 1
 44 2 l 2
 57 21 66 37 66 39 c 2
 66 39 67 42 68 44 c 0
 69 46 170 204 293 396 c 2
 516 745 l 1
 291 745 l 1
 66 745 l 1
 66 783 l 1
EndSplineSet
EndChar

StartChar: bracketleft
Encoding: 91 91 58
Width: 392
VWidth: 910
Flags: HW
LayerCount: 2
Fore
SplineSet
44 410 m 1
 44 870 l 1
 197 870 l 1
 349 870 l 1
 349 834 l 1
 349 796 l 1
 313 796 l 1
 277 796 l 1
 277 410 l 1
 277 23 l 1
 313 23 l 1
 349 23 l 1
 349 -14 l 1
 349 -51 l 1
 197 -51 l 1
 44 -51 l 1
 44 410 l 1
EndSplineSet
EndChar

StartChar: backslash
Encoding: 92 92 59
Width: 695
VWidth: 910
Flags: HW
LayerCount: 2
Fore
SplineSet
45 817 m 0
 45 819 50 819 161 819 c 2
 278 819 l 1
 463 411 l 2
 566 186 650 3 651 2 c 0
 651 0 645 0 534 0 c 2
 419 0 l 1
 232 408 l 2
 129 633 46 816 45 817 c 0
EndSplineSet
EndChar

StartChar: bracketright
Encoding: 93 93 60
Width: 392
VWidth: 910
Flags: HW
LayerCount: 2
Fore
SplineSet
44 834 m 1
 44 870 l 1
 197 870 l 1
 349 870 l 1
 349 410 l 1
 349 -51 l 1
 197 -51 l 1
 44 -51 l 1
 44 -14 l 1
 44 23 l 1
 80 23 l 1
 116 23 l 1
 116 410 l 1
 116 796 l 1
 80 796 l 1
 44 796 l 1
 44 834 l 1
EndSplineSet
EndChar

StartChar: asciicircum
Encoding: 94 94 61
Width: 493
VWidth: 910
Flags: HW
LayerCount: 2
Fore
SplineSet
161 746 m 2
 202 819 l 1
 247 819 l 1
 291 819 l 1
 332 746 l 2
 355 706 374 672 375 670 c 2
 377 667 l 1
 332 667 l 1
 289 668 l 1
 268 704 l 2
 257 724 248 740 247 740 c 0
 246 740 237 724 226 704 c 2
 205 668 l 1
 161 667 l 1
 117 667 l 1
 118 670 l 2
 119 672 138 706 161 746 c 2
EndSplineSet
EndChar

StartChar: underscore
Encoding: 95 95 62
Width: 910
VWidth: 910
Flags: HW
LayerCount: 2
Fore
SplineSet
0 -36 m 1
 0 0 l 1
 455 0 l 1
 910 0 l 1
 910 -36 l 1
 910 -74 l 1
 455 -74 l 1
 0 -74 l 1
 0 -36 l 1
EndSplineSet
EndChar

StartChar: a
Encoding: 97 97 63
Width: 834
VWidth: 910
Flags: HW
LayerCount: 2
Fore
SplineSet
333 619 m 0
 359 620 487 619 504 618 c 0
 565 613 606 607 643 594 c 0
 673 584 699 569 713 554 c 0
 728 538 738 518 743 492 c 0
 744 486 745 478 745 476 c 0
 746 475 746 381 746 237 c 2
 746 0 l 1
 674 0 l 2
 600 1 594 1 574 5 c 0
 569 6 567 6 554 4 c 0
 537 1 513 -2 491 -4 c 0
 468 -6 359 -6 338 -4 c 0
 299 -1 273 3 247 8 c 0
 205 16 172 29 147 47 c 0
 113 71 95 104 90 157 c 0
 88 172 88 238 90 253 c 0
 95 305 113 338 147 362 c 0
 178 384 221 399 278 407 c 0
 311 412 340 414 388 415 c 0
 427 415 446 415 464 412 c 2
 472 411 l 1
 482 414 l 2
 491 418 492 417 497 422 c 0
 502 428 508 440 511 451 c 0
 514 460 513 473 510 488 c 0
 505 510 498 526 487 535 c 0
 480 542 473 544 462 545 c 0
 448 546 379 546 355 545 c 2
 335 544 l 1
 331 542 l 2
 327 538 323 529 322 522 c 0
 321 517 321 515 326 498 c 0
 328 488 329 480 330 479 c 0
 330 478 305 478 209 478 c 2
 88 478 l 1
 88 500 l 2
 88 519 88 524 90 530 c 0
 97 556 117 577 152 591 c 0
 190 606 253 616 333 619 c 0
410 340 m 0
 387 342 376 342 370 339 c 0
 365 337 355 329 350 323 c 0
 336 308 328 287 323 254 c 0
 321 237 321 173 323 156 c 0
 328 115 340 90 361 76 c 0
 372 68 371 69 410 68 c 0
 449 68 450 69 460 75 c 0
 468 80 480 92 485 101 c 0
 500 124 508 150 512 193 c 0
 513 199 512 232 513 270 c 2
 513 337 l 1
 487 336 l 2
 459 336 432 337 410 340 c 0
EndSplineSet
EndChar

StartChar: b
Encoding: 98 98 64
Width: 834
VWidth: 910
Flags: HW
LayerCount: 2
Fore
SplineSet
88 410 m 1
 88 819 l 1
 205 819 l 1
 321 819 l 1
 321 736 l 1
 321 654 l 1
 330 654 l 1
 384 659 466 658 512 653 c 0
 600 643 664 618 697 579 c 0
 731 541 747 485 751 396 c 0
 752 367 752 285 751 256 c 0
 747 166 731 111 697 72 c 0
 667 37 612 14 536 3 c 0
 501 -2 477 -4 425 -5 c 0
 363 -6 318 -3 278 3 c 0
 263 5 262 5 252 4 c 0
 233 1 219 0 154 0 c 2
 88 0 l 1
 88 410 l 1
444 581 m 0
 439 583 437 582 411 583 c 0
 382 583 382 583 372 578 c 0
 366 573 352 560 347 553 c 0
 332 530 325 502 322 456 c 0
 321 435 321 190 322 173 c 0
 326 123 336 92 360 76 c 0
 371 68 371 69 407 69 c 2
 439 69 l 1
 444 71 l 2
 453 76 460 79 469 88 c 0
 494 113 510 155 515 221 c 0
 518 246 519 278 519 326 c 0
 519 374 518 406 515 431 c 0
 510 497 494 539 469 564 c 0
 460 572 453 576 444 581 c 0
EndSplineSet
EndChar

StartChar: c
Encoding: 99 99 65
Width: 834
VWidth: 910
Flags: HW
LayerCount: 2
Fore
SplineSet
376 619 m 0
 389 620 501 619 516 618 c 0
 611 613 674 597 708 573 c 0
 726 560 739 544 744 522 c 0
 746 516 745 512 746 489 c 2
 746 463 l 1
 625 463 l 2
 510 463 504 463 504 465 c 0
 505 466 507 474 510 484 c 0
 514 500 513 502 512 509 c 0
 510 523 505 536 498 542 c 0
 494 545 494 544 484 545 c 2
 434 545 l 2
 388 546 391 546 379 539 c 0
 371 534 356 521 350 511 c 0
 329 480 320 437 317 370 c 0
 316 344 316 270 317 244 c 0
 320 177 329 135 350 104 c 0
 356 94 371 81 379 76 c 0
 391 69 388 68 434 69 c 2
 484 69 l 2
 494 70 494 70 498 73 c 0
 505 79 510 92 512 106 c 0
 513 113 514 114 510 131 c 0
 507 140 505 148 504 149 c 0
 504 151 510 151 625 151 c 2
 746 151 l 1
 746 126 l 2
 745 103 746 99 744 93 c 0
 733 52 703 29 642 14 c 0
 607 5 567 -1 513 -4 c 0
 487 -6 374 -6 353 -4 c 0
 259 2 199 20 157 51 c 0
 116 81 93 132 86 207 c 0
 83 231 83 260 83 308 c 0
 83 356 83 385 86 408 c 0
 91 467 107 509 134 541 c 0
 163 577 218 601 295 612 c 0
 319 616 341 618 376 619 c 0
EndSplineSet
EndChar

StartChar: d
Encoding: 100 100 66
Width: 834
VWidth: 910
Flags: HW
LayerCount: 2
Fore
SplineSet
513 718 m 1
 513 819 l 1
 630 819 l 1
 746 819 l 1
 746 410 l 1
 746 0 l 1
 682 0 l 2
 618 0 601 1 583 4 c 0
 574 5 574 5 559 3 c 0
 544 0 523 -2 501 -4 c 0
 479 -6 399 -6 373 -5 c 0
 246 0 168 29 131 82 c 0
 124 92 111 116 106 129 c 0
 96 159 91 194 89 241 c 0
 88 268 88 346 89 373 c 0
 92 435 100 475 117 510 c 0
 126 527 134 538 147 551 c 0
 187 591 260 614 371 619 c 0
 406 621 482 620 507 617 c 2
 513 617 l 1
 513 718 l 1
470 542 m 2
 463 545 l 1
 431 546 l 2
 413 546 398 545 396 545 c 0
 388 543 378 537 370 529 c 0
 345 504 330 465 325 406 c 0
 320 360 320 254 325 208 c 0
 330 149 345 111 370 86 c 0
 377 80 380 77 387 73 c 2
 395 69 l 1
 429 69 l 1
 463 69 l 1
 470 72 l 2
 480 77 491 87 496 97 c 0
 503 111 509 131 512 156 c 0
 514 171 514 444 512 460 c 0
 509 484 503 503 496 517 c 0
 491 527 480 537 470 542 c 2
EndSplineSet
EndChar

StartChar: e
Encoding: 101 101 67
Width: 811
VWidth: 910
Flags: HW
LayerCount: 2
Fore
SplineSet
360 619 m 0
 378 620 449 619 465 618 c 0
 497 615 527 611 551 606 c 0
 614 592 655 569 680 534 c 0
 693 517 704 490 710 464 c 0
 720 425 724 384 724 300 c 2
 724 258 l 1
 520 258 l 1
 316 258 l 1
 316 256 l 2
 316 247 317 211 319 199 c 0
 324 144 337 108 360 85 c 0
 365 81 370 77 374 75 c 0
 384 69 384 68 418 68 c 0
 434 68 454 68 461 69 c 2
 474 70 l 1
 478 73 l 2
 483 78 488 89 490 99 c 2
 491 108 l 1
 487 127 l 2
 484 137 483 146 482 147 c 0
 482 148 507 147 603 147 c 2
 724 147 l 1
 724 122 l 2
 723 92 723 88 715 73 c 0
 701 43 675 27 620 13 c 0
 571 0 509 -5 418 -5 c 0
 325 -5 267 2 216 18 c 0
 162 36 131 61 111 103 c 0
 94 136 87 172 84 231 c 0
 83 256 83 336 84 364 c 0
 87 430 95 473 113 509 c 0
 132 548 160 572 206 590 c 0
 246 606 296 615 360 619 c 0
426 542 m 2
 418 546 l 1
 405 546 l 2
 391 546 387 545 378 539 c 0
 370 534 356 521 351 513 c 0
 334 486 324 450 319 399 c 0
 317 386 316 346 316 335 c 2
 316 331 l 1
 403 331 l 1
 491 331 l 1
 491 336 l 2
 491 357 488 398 485 418 c 0
 477 484 457 526 426 542 c 2
EndSplineSet
EndChar

StartChar: f
Encoding: 102 102 68
Width: 616
VWidth: 910
Flags: HW
LayerCount: 2
Fore
SplineSet
309 824 m 0
 321 825 384 824 395 823 c 0
 461 818 506 805 537 784 c 0
 549 777 556 770 563 760 c 0
 579 738 588 710 593 669 c 0
 594 663 593 637 594 612 c 2
 594 564 l 1
 473 564 l 2
 358 564 352 564 352 566 c 0
 353 567 355 575 358 584 c 2
 361 602 l 1
 361 628 l 2
 360 658 360 671 356 690 c 0
 353 707 347 728 342 734 c 0
 341 735 341 735 340 734 c 0
 335 728 330 707 326 689 c 0
 322 664 322 660 321 570 c 2
 321 484 l 1
 417 484 l 1
 512 484 l 1
 512 447 l 1
 512 410 l 1
 417 410 l 1
 321 411 l 1
 321 206 l 1
 321 0 l 1
 205 0 l 1
 88 0 l 1
 88 330 l 2
 89 584 89 661 90 669 c 0
 95 712 104 738 120 760 c 0
 127 770 134 777 146 784 c 0
 181 808 233 820 309 824 c 0
EndSplineSet
EndChar

StartChar: g
Encoding: 103 103 69
Width: 834
VWidth: 910
Flags: HW
LayerCount: 2
Fore
SplineSet
376 619 m 0
 390 620 501 619 516 618 c 0
 537 617 560 615 575 613 c 0
 583 612 587 612 593 613 c 0
 598 614 626 613 674 614 c 2
 746 614 l 1
 746 267 l 2
 746 -113 746 -89 741 -107 c 0
 736 -124 726 -144 714 -155 c 0
 678 -187 603 -204 489 -209 c 0
 460 -210 375 -210 346 -209 c 0
 257 -205 193 -194 151 -173 c 0
 126 -161 111 -147 100 -126 c 0
 91 -107 88 -92 88 -58 c 2
 88 -35 l 1
 209 -35 l 2
 305 -35 330 -34 330 -35 c 0
 330 -36 328 -45 325 -55 c 2
 321 -73 l 1
 322 -83 l 2
 324 -103 331 -118 340 -128 c 0
 345 -132 347 -134 349 -134 c 0
 364 -138 471 -138 486 -134 c 0
 493 -133 503 -120 508 -105 c 0
 513 -91 513 -82 513 -41 c 2
 513 -4 l 1
 502 -5 l 2
 483 -6 370 -6 353 -4 c 0
 259 2 199 20 157 51 c 0
 116 81 93 132 86 207 c 0
 83 231 83 260 83 308 c 0
 83 356 83 385 86 408 c 0
 91 467 107 509 134 541 c 0
 163 577 218 601 295 612 c 0
 319 616 341 618 376 619 c 0
490 544 m 0
 481 545 398 546 393 545 c 0
 383 543 368 533 358 521 c 0
 333 491 321 445 317 370 c 0
 316 344 316 270 317 244 c 0
 320 177 329 135 350 104 c 0
 356 94 371 81 379 76 c 0
 391 69 388 68 434 69 c 2
 485 69 l 1
 495 70 l 1
 500 75 l 2
 505 80 509 88 512 97 c 0
 513 102 513 115 513 308 c 0
 513 500 513 512 512 517 c 0
 509 525 505 534 500 539 c 0
 496 544 495 543 490 544 c 0
EndSplineSet
EndChar

StartChar: h
Encoding: 104 104 70
Width: 834
VWidth: 910
Flags: HW
LayerCount: 2
Fore
SplineSet
88 410 m 1
 88 819 l 1
 205 819 l 1
 321 819 l 1
 321 718 l 1
 321 618 l 1
 332 619 l 2
 351 620 464 620 481 618 c 0
 576 611 631 595 674 563 c 0
 714 533 738 482 744 406 c 0
 747 379 746 346 746 178 c 2
 746 0 l 1
 630 0 l 1
 513 0 l 1
 513 190 l 2
 512 378 513 384 510 412 c 0
 503 480 482 524 447 542 c 2
 441 546 l 1
 400 545 l 1
 350 545 l 2
 340 544 341 545 337 542 c 0
 332 537 327 529 324 521 c 2
 322 513 l 1
 321 257 l 1
 321 0 l 1
 205 0 l 1
 88 0 l 1
 88 410 l 1
EndSplineSet
EndChar

StartChar: i
Encoding: 105 105 71
Width: 429
VWidth: 910
Flags: HW
LayerCount: 2
Fore
SplineSet
187 753 m 0
 229 757 278 751 306 740 c 0
 331 731 338 717 326 705 c 0
 308 687 244 676 188 681 c 0
 122 686 87 705 102 726 c 0
 112 739 146 749 187 753 c 0
98 308 m 1
 98 614 l 1
 215 614 l 1
 331 614 l 1
 331 308 l 1
 331 0 l 1
 215 0 l 1
 98 0 l 1
 98 308 l 1
EndSplineSet
EndChar

StartChar: j
Encoding: 106 106 72
Width: 594
VWidth: 910
Flags: HW
LayerCount: 2
Fore
SplineSet
361 753 m 0
 403 757 453 751 481 740 c 0
 506 731 513 717 501 705 c 0
 483 687 419 676 363 681 c 0
 297 686 262 705 277 726 c 0
 287 739 320 749 361 753 c 0
273 306 m 2
 273 614 l 1
 390 614 l 1
 506 614 l 1
 506 304 l 2
 505 -14 506 -13 502 -43 c 0
 496 -98 481 -135 457 -157 c 0
 421 -191 344 -210 253 -210 c 0
 162 -210 85 -191 49 -157 c 0
 22 -132 7 -88 2 -17 c 0
 1 -11 1 20 0 50 c 2
 0 106 l 1
 121 106 l 2
 236 106 242 106 242 104 c 0
 241 103 240 95 237 86 c 2
 233 68 l 1
 233 34 l 2
 234 -16 237 -42 242 -71 c 0
 245 -84 250 -103 252 -106 c 0
 253 -108 254 -107 259 -95 c 0
 264 -77 268 -48 271 -15 c 0
 272 -5 272 75 273 306 c 2
EndSplineSet
EndChar

StartChar: k
Encoding: 107 107 73
Width: 790
VWidth: 910
Flags: HW
LayerCount: 2
Fore
SplineSet
88 410 m 1
 88 819 l 1
 205 819 l 1
 321 819 l 1
 321 638 l 1
 322 456 l 1
 441 554 l 1
 562 652 l 1
 678 652 l 1
 795 652 l 1
 785 644 l 1
 507 449 418 387 418 387 c 1
 418 387 498 301 596 195 c 0
 693 89 775 3 776 2 c 0
 777 0 769 0 660 0 c 2
 544 0 l 1
 433 148 l 1
 322 296 l 1
 321 147 l 1
 321 0 l 1
 205 0 l 1
 88 0 l 1
 88 410 l 1
EndSplineSet
EndChar

StartChar: l
Encoding: 108 108 74
Width: 429
VWidth: 910
Flags: HW
LayerCount: 2
Fore
SplineSet
98 410 m 1
 98 819 l 1
 215 819 l 1
 331 819 l 1
 331 410 l 1
 331 0 l 1
 215 0 l 1
 98 0 l 1
 98 410 l 1
EndSplineSet
EndChar

StartChar: m
Encoding: 109 109 75
Width: 1188
VWidth: 910
Flags: HW
LayerCount: 2
Fore
SplineSet
337 619 m 0
 361 620 421 620 441 619 c 0
 498 616 542 609 581 595 c 2
 594 591 l 1
 608 595 l 2
 656 611 715 620 789 620 c 0
 877 620 950 607 998 584 c 0
 1013 577 1019 572 1031 564 c 0
 1066 538 1088 490 1096 423 c 0
 1100 390 1099 389 1100 191 c 2
 1100 0 l 1
 984 0 l 1
 867 0 l 1
 867 190 l 2
 866 387 867 388 863 421 c 0
 857 474 843 509 821 531 c 0
 815 537 812 539 806 542 c 0
 799 546 797 546 789 546 c 0
 781 546 780 546 773 542 c 0
 767 539 763 537 757 531 c 0
 735 509 721 474 715 421 c 0
 711 388 712 387 711 190 c 2
 711 0 l 1
 594 0 l 1
 478 0 l 1
 478 190 l 2
 477 387 477 388 473 421 c 0
 467 474 453 509 431 531 c 0
 425 537 422 539 416 542 c 2
 409 546 l 1
 389 546 l 1
 368 546 l 1
 362 543 l 2
 355 539 344 529 339 521 c 0
 333 508 327 492 325 475 c 0
 324 470 323 464 322 462 c 0
 322 459 321 362 321 245 c 2
 321 32 l 1
 319 29 l 1
 317 26 l 1
 319 15 l 2
 320 10 320 3 321 2 c 2
 321 0 l 1
 205 0 l 1
 88 0 l 1
 88 308 l 1
 88 614 l 1
 161 614 l 2
 213 613 237 614 242 613 c 0
 254 611 259 610 275 613 c 0
 293 616 317 618 337 619 c 0
EndSplineSet
EndChar

StartChar: n
Encoding: 110 110 76
Width: 834
VWidth: 910
Flags: HW
LayerCount: 2
Fore
SplineSet
360 619 m 0
 379 620 472 619 488 618 c 0
 576 611 632 594 674 563 c 0
 714 533 738 482 744 406 c 0
 747 379 746 346 746 178 c 2
 746 0 l 1
 630 0 l 1
 513 0 l 1
 513 190 l 2
 512 378 513 384 510 412 c 0
 503 480 482 524 447 542 c 2
 441 546 l 1
 406 545 l 1
 372 545 l 1
 366 542 l 2
 347 534 333 513 327 484 c 0
 322 461 322 471 321 243 c 2
 321 32 l 1
 319 29 l 1
 317 26 l 1
 319 15 l 2
 320 10 320 3 321 2 c 2
 321 0 l 1
 205 0 l 1
 88 0 l 1
 88 308 l 1
 88 614 l 1
 154 614 l 2
 218 614 234 614 252 611 c 0
 260 610 262 610 276 612 c 0
 299 616 325 618 360 619 c 0
EndSplineSet
EndChar

StartChar: o
Encoding: 111 111 77
Width: 942
VWidth: 910
Flags: HW
LayerCount: 2
Fore
SplineSet
406 619 m 0
 422 620 551 619 565 618 c 0
 640 613 692 603 735 587 c 0
 815 557 858 510 873 430 c 0
 879 399 880 379 880 308 c 0
 880 246 881 234 877 208 c 0
 869 142 844 93 801 61 c 0
 755 27 687 6 597 -1 c 0
 559 -5 545 -5 471 -5 c 0
 396 -5 383 -5 346 -1 c 0
 231 8 152 40 111 90 c 0
 82 126 68 166 63 233 c 0
 61 251 61 363 63 382 c 0
 68 448 82 488 111 524 c 0
 140 560 191 588 260 603 c 0
 300 612 344 617 406 619 c 0
524 545 m 0
 507 546 433 546 415 545 c 0
 394 544 381 540 366 531 c 0
 358 526 345 515 338 507 c 0
 316 482 303 446 298 396 c 0
 293 354 293 260 298 218 c 0
 303 168 316 132 338 107 c 0
 353 89 375 76 395 72 c 0
 406 69 429 68 471 68 c 0
 512 68 536 69 547 72 c 0
 567 76 589 89 604 107 c 0
 626 132 639 168 644 218 c 0
 649 260 649 354 644 396 c 0
 639 446 626 482 604 507 c 0
 589 525 567 538 547 542 c 0
 542 543 532 544 524 545 c 0
EndSplineSet
EndChar

StartChar: p
Encoding: 112 112 78
Width: 811
VWidth: 910
Flags: HW
LayerCount: 2
Fore
SplineSet
351 619 m 0
 365 620 462 619 475 618 c 0
 521 614 561 608 593 599 c 0
 634 588 669 568 689 546 c 0
 717 516 734 476 741 420 c 0
 745 391 745 376 745 308 c 0
 745 239 745 224 741 195 c 0
 734 139 717 98 689 68 c 0
 669 46 634 26 593 15 c 0
 560 5 519 -1 473 -4 c 0
 454 -6 366 -6 339 -5 c 2
 321 -4 l 1
 321 -87 l 2
 321 -169 321 -170 319 -175 c 2
 318 -178 l 1
 319 -191 l 2
 320 -198 321 -204 321 -205 c 2
 205 -205 l 1
 88 -205 l 1
 88 205 l 1
 88 614 l 1
 154 614 l 2
 217 614 231 615 250 612 c 0
 256 611 259 611 272 613 c 0
 297 617 311 617 351 619 c 0
443 542 m 2
 435 546 l 1
 404 546 l 2
 387 546 372 546 370 545 c 0
 364 544 357 539 350 532 c 0
 334 516 325 492 322 451 c 0
 321 443 321 388 321 308 c 0
 321 227 321 171 322 163 c 0
 325 131 330 111 340 94 c 0
 345 87 355 76 362 72 c 2
 369 69 l 1
 401 69 l 1
 435 69 l 1
 443 73 l 2
 478 90 500 132 508 198 c 0
 512 226 512 242 512 308 c 0
 512 374 512 389 508 417 c 0
 500 483 478 525 443 542 c 2
EndSplineSet
EndChar

StartChar: q
Encoding: 113 113 79
Width: 811
VWidth: 910
Flags: HW
LayerCount: 2
Fore
SplineSet
362 619 m 0
 365 620 392 620 421 619 c 0
 471 619 487 618 512 615 c 0
 522 614 537 614 573 614 c 0
 621 614 636 614 655 611 c 0
 690 606 718 596 723 583 c 0
 724 581 724 522 724 205 c 2
 724 -170 l 1
 722 -175 l 1
 720 -178 l 1
 722 -191 l 2
 723 -198 724 -204 724 -205 c 2
 607 -205 l 1
 491 -205 l 1
 491 -104 l 1
 491 -4 l 1
 473 -5 l 2
 446 -6 358 -6 340 -4 c 0
 293 -1 252 5 219 15 c 0
 178 26 143 46 123 68 c 0
 95 98 78 139 71 195 c 0
 67 224 67 239 67 308 c 0
 67 376 67 391 71 420 c 0
 78 476 95 516 123 546 c 0
 143 568 178 588 219 599 c 0
 257 610 301 616 362 619 c 0
450 542 m 2
 444 546 l 1
 414 546 l 2
 397 546 382 545 379 545 c 0
 369 543 351 533 341 520 c 0
 322 497 309 463 304 417 c 0
 300 389 300 374 300 308 c 0
 300 242 300 226 304 198 c 0
 312 132 334 90 369 73 c 2
 377 69 l 1
 411 69 l 1
 444 69 l 1
 450 72 l 2
 457 76 467 87 472 94 c 0
 482 111 487 131 490 163 c 0
 491 181 491 433 490 451 c 0
 487 483 482 504 472 521 c 0
 467 528 457 538 450 542 c 2
EndSplineSet
EndChar

StartChar: r
Encoding: 114 114 80
Width: 740
VWidth: 910
Flags: HW
LayerCount: 2
Fore
SplineSet
340 619 m 0
 354 620 475 619 490 618 c 0
 596 612 655 594 680 563 c 0
 686 556 692 545 694 536 c 0
 696 531 696 526 696 507 c 2
 696 485 l 1
 578 485 l 2
 470 485 459 485 459 487 c 2
 459 487 459 496 461 507 c 0
 463 528 464 532 459 540 c 2
 455 545 l 1
 446 545 l 2
 441 545 420 546 400 546 c 2
 363 546 l 1
 359 544 l 2
 344 536 333 519 328 496 c 0
 322 472 322 486 321 248 c 2
 321 32 l 1
 319 29 l 1
 317 26 l 1
 319 15 l 2
 320 10 320 3 321 2 c 2
 321 0 l 1
 205 0 l 1
 88 0 l 1
 88 308 l 1
 88 614 l 1
 154 614 l 2
 214 614 234 614 248 612 c 0
 251 612 256 612 263 613 c 0
 282 616 308 618 340 619 c 0
EndSplineSet
EndChar

StartChar: s
Encoding: 115 115 81
Width: 834
VWidth: 910
Flags: HW
LayerCount: 2
Fore
SplineSet
348 619 m 0
 370 620 496 619 516 618 c 0
 611 613 674 597 708 573 c 0
 726 560 739 544 744 522 c 0
 746 516 745 512 746 489 c 2
 746 463 l 1
 628 463 l 1
 509 463 l 1
 509 467 l 2
 510 469 511 477 512 486 c 0
 514 500 513 504 512 510 c 0
 510 523 505 535 498 541 c 0
 496 544 495 544 490 544 c 0
 480 546 387 546 372 545 c 0
 360 544 358 545 353 542 c 0
 335 534 324 512 319 479 c 0
 316 464 315 443 317 432 c 0
 321 401 339 377 370 362 c 0
 392 350 412 346 449 343 c 0
 563 333 648 307 699 265 c 0
 717 250 733 228 740 208 c 0
 745 193 746 188 745 165 c 0
 745 138 743 120 736 101 c 0
 724 67 704 46 667 29 c 0
 627 12 578 1 502 -4 c 0
 479 -6 348 -6 321 -4 c 0
 267 -1 228 5 194 14 c 0
 132 29 102 52 91 93 c 0
 89 99 89 103 88 126 c 2
 88 151 l 1
 207 151 l 1
 326 151 l 1
 326 147 l 2
 325 145 324 137 323 128 c 0
 321 114 321 111 322 105 c 0
 324 92 330 80 337 74 c 0
 339 71 340 70 345 70 c 0
 354 69 448 68 461 69 c 0
 475 70 480 72 487 79 c 0
 504 94 512 123 512 165 c 0
 512 186 511 193 506 206 c 0
 494 234 464 256 426 266 c 0
 414 269 404 270 380 272 c 0
 272 281 188 306 137 344 c 0
 112 362 96 384 88 409 c 0
 84 421 83 433 83 448 c 0
 83 505 101 546 136 570 c 0
 179 598 249 614 348 619 c 0
EndSplineSet
EndChar

StartChar: t
Encoding: 116 116 82
Width: 594
VWidth: 910
Flags: HW
LayerCount: 2
Fore
SplineSet
180 717 m 1
 180 819 l 1
 298 819 l 1
 414 819 l 1
 414 717 l 1
 414 614 l 1
 482 614 l 1
 551 614 l 1
 551 578 l 1
 551 541 l 1
 482 541 l 1
 414 541 l 1
 414 270 l 1
 414 0 l 1
 298 0 l 1
 180 0 l 1
 180 270 l 1
 180 541 l 1
 112 541 l 1
 44 541 l 1
 44 578 l 1
 44 614 l 1
 112 614 l 1
 180 614 l 1
 180 717 l 1
EndSplineSet
EndChar

StartChar: u
Encoding: 117 117 83
Width: 834
VWidth: 910
Flags: HW
LayerCount: 2
Fore
SplineSet
88 436 m 2
 88 614 l 1
 205 614 l 1
 321 614 l 1
 321 424 l 2
 322 236 322 230 325 203 c 0
 332 134 353 90 388 72 c 1
 395 69 l 1
 429 69 l 1
 463 69 l 1
 469 72 l 2
 488 80 502 101 508 130 c 0
 513 153 512 141 513 388 c 2
 513 614 l 1
 630 614 l 1
 746 614 l 1
 746 326 l 1
 746 37 l 1
 749 19 l 2
 750 9 751 0 751 0 c 1
 684 0 l 2
 618 0 601 1 583 4 c 0
 574 5 574 5 559 3 c 0
 543 0 523 -2 499 -4 c 0
 476 -6 374 -6 354 -4 c 0
 260 3 203 20 160 52 c 0
 120 82 97 133 91 209 c 0
 88 235 88 268 88 436 c 2
EndSplineSet
EndChar

StartChar: v
Encoding: 118 118 84
Width: 790
VWidth: 910
Flags: HW
LayerCount: 2
Fore
SplineSet
57 613 m 0
 57 614 81 614 174 614 c 2
 290 614 l 1
 290 613 l 2
 291 612 314 484 343 330 c 0
 371 176 395 51 395 51 c 1
 395 51 419 176 447 330 c 0
 476 484 499 612 500 613 c 2
 500 614 l 1
 616 614 l 2
 709 614 733 614 733 613 c 0
 733 612 691 474 641 306 c 2
 550 0 l 1
 395 0 l 1
 241 0 l 1
 149 306 l 2
 99 474 57 612 57 613 c 0
EndSplineSet
EndChar

StartChar: w
Encoding: 119 119 85
Width: 1245
VWidth: 910
Flags: HW
LayerCount: 2
Fore
SplineSet
16 612 m 2
 15 614 l 1
 132 614 l 1
 248 614 l 1
 315 367 l 2
 350 231 380 120 380 119 c 2
 380 119 417 230 461 367 c 2
 541 614 l 1
 623 614 l 1
 705 614 l 1
 785 367 l 2
 829 230 865 119 865 119 c 2
 865 120 895 231 930 367 c 2
 997 614 l 1
 1113 614 l 1
 1230 614 l 1
 1229 612 l 2
 1228 610 1193 473 1148 309 c 0
 1104 144 1068 8 1067 5 c 2
 1066 0 l 1
 868 0 l 2
 711 0 670 0 670 1 c 0
 669 2 659 52 646 113 c 0
 633 173 623 223 623 223 c 1
 623 223 612 173 599 113 c 0
 586 52 576 2 575 1 c 0
 575 0 534 0 377 0 c 2
 179 0 l 1
 178 5 l 2
 177 8 141 144 97 309 c 0
 52 473 17 610 16 612 c 2
EndSplineSet
EndChar

StartChar: x
Encoding: 120 120 86
Width: 790
VWidth: 910
Flags: HW
LayerCount: 2
Fore
SplineSet
82 614 m 2
 198 614 l 1
 315 614 l 1
 355 542 l 2
 377 501 395 468 395 468 c 1
 436 542 l 1
 476 614 l 1
 592 614 l 1
 708 614 l 2
 708 613 657 547 593 466 c 0
 529 385 477 319 477 319 c 1
 477 319 533 246 600 159 c 0
 667 73 723 1 724 1 c 1
 724 0 672 0 607 0 c 2
 491 0 l 1
 443 86 l 2
 417 133 395 171 395 171 c 1
 395 171 373 133 347 86 c 2
 299 0 l 1
 183 0 l 2
 118 0 66 0 66 1 c 1
 67 1 123 73 190 160 c 0
 257 246 313 319 313 319 c 1
 313 319 262 385 198 466 c 0
 134 547 82 613 82 614 c 2
EndSplineSet
EndChar

StartChar: y
Encoding: 121 121 87
Width: 790
VWidth: 910
Flags: HW
LayerCount: 2
Fore
SplineSet
52 613 m 0
 52 614 75 614 168 614 c 2
 285 614 l 1
 335 463 l 2
 363 379 386 311 386 311 c 1
 386 311 411 372 439 446 c 0
 468 520 495 588 499 597 c 2
 505 614 l 1
 622 614 l 2
 715 614 738 614 738 613 c 0
 737 611 424 -188 420 -198 c 2
 417 -205 l 1
 300 -205 l 1
 184 -205 l 2
 184 -204 208 -140 239 -63 c 2
 295 78 l 1
 174 345 l 2
 108 492 53 612 52 613 c 0
EndSplineSet
EndChar

StartChar: z
Encoding: 122 122 88
Width: 790
VWidth: 910
Flags: HW
LayerCount: 2
Fore
SplineSet
66 578 m 1
 66 614 l 1
 410 614 l 2
 737 614 753 615 752 613 c 0
 744 604 724 577 724 575 c 0
 724 574 723 573 722 572 c 0
 721 570 632 457 526 321 c 2
 332 75 l 1
 528 74 l 1
 724 74 l 1
 724 36 l 1
 724 0 l 1
 380 0 l 2
 53 0 37 0 38 2 c 0
 46 11 66 37 66 39 c 0
 66 40 67 42 68 44 c 0
 69 45 158 157 264 293 c 2
 458 541 l 1
 262 541 l 1
 66 541 l 1
 66 578 l 1
EndSplineSet
EndChar

StartChar: braceleft
Encoding: 123 123 89
Width: 442
VWidth: 910
Flags: HW
LayerCount: 2
Fore
SplineSet
262 869 m 0
 315 873 376 861 392 845 c 0
 397 840 400 834 398 830 c 0
 395 821 384 813 364 807 c 0
 357 804 354 802 350 796 c 0
 344 784 340 753 337 715 c 0
 336 707 335 665 335 620 c 0
 335 575 334 532 333 525 c 0
 330 482 325 452 317 436 c 0
 313 429 304 417 299 412 c 2
 296 410 l 1
 299 407 l 2
 304 402 313 390 317 383 c 0
 325 367 330 337 333 295 c 0
 334 287 335 244 335 199 c 0
 335 154 336 112 337 105 c 0
 340 66 344 36 350 24 c 0
 354 18 357 15 364 12 c 0
 384 6 395 -2 398 -11 c 0
 400 -15 397 -20 392 -25 c 0
 384 -33 360 -41 335 -46 c 0
 315 -49 304 -50 281 -50 c 0
 212 -50 155 -33 130 -3 c 0
 115 15 108 44 104 102 c 0
 103 109 102 152 102 197 c 0
 102 242 101 284 100 292 c 0
 97 329 92 360 86 371 c 0
 82 379 81 380 71 384 c 0
 48 391 35 402 39 412 c 0
 42 421 53 429 71 435 c 0
 81 439 82 440 86 448 c 0
 92 459 97 490 100 528 c 0
 101 535 102 578 102 623 c 0
 102 668 103 710 104 718 c 0
 108 775 115 804 130 822 c 0
 153 848 199 865 262 869 c 0
EndSplineSet
EndChar

StartChar: bar
Encoding: 124 124 90
Width: 493
VWidth: 910
Flags: HW
LayerCount: 2
Fore
SplineSet
130 410 m 1
 130 819 l 1
 247 819 l 1
 363 819 l 1
 363 410 l 1
 363 0 l 1
 247 0 l 1
 130 0 l 1
 130 410 l 1
EndSplineSet
EndChar

StartChar: braceright
Encoding: 125 125 91
Width: 442
VWidth: 910
Flags: HW
LayerCount: 2
Fore
SplineSet
136 869 m 0
 146 870 172 869 187 867 c 0
 229 863 263 853 286 838 c 0
 306 825 317 810 323 786 c 0
 332 752 335 711 335 623 c 0
 335 550 337 514 342 484 c 0
 346 460 351 446 356 441 c 0
 358 440 361 438 365 437 c 0
 386 432 399 423 403 413 c 0
 404 409 404 410 403 406 c 0
 399 396 386 387 365 382 c 0
 361 381 358 380 356 379 c 0
 351 374 346 359 342 336 c 0
 337 305 335 270 335 197 c 0
 335 109 332 68 323 34 c 0
 317 10 306 -6 286 -19 c 0
 263 -34 231 -44 186 -49 c 0
 170 -51 133 -51 118 -49 c 0
 71 -44 40 -33 34 -18 c 0
 33 -14 33 -14 34 -11 c 0
 37 -1 47 7 69 13 c 0
 74 15 79 16 81 17 c 0
 88 23 94 47 97 80 c 0
 101 106 101 122 102 199 c 0
 102 243 103 284 104 292 c 0
 107 336 113 365 121 382 c 0
 125 389 133 401 139 406 c 2
 143 410 l 1
 139 413 l 2
 133 418 125 430 121 437 c 0
 113 454 107 483 104 528 c 0
 103 535 102 576 102 620 c 0
 101 697 101 713 97 739 c 0
 94 772 88 796 81 802 c 0
 79 803 74 804 69 806 c 0
 47 812 37 820 34 830 c 0
 33 833 33 833 34 837 c 0
 37 842 42 848 52 853 c 0
 71 862 101 867 136 869 c 0
EndSplineSet
EndChar

StartChar: asciitilde
Encoding: 126 126 92
Width: 998
VWidth: 910
Flags: HW
LayerCount: 2
Fore
SplineSet
277 445 m 0
 291 446 396 445 410 444 c 0
 474 439 520 429 554 413 c 0
 574 403 585 395 595 382 c 0
 609 363 614 344 616 309 c 0
 616 298 618 284 618 280 c 0
 622 265 627 253 634 246 c 2
 636 242 l 1
 669 242 l 1
 702 242 l 1
 705 247 l 2
 713 255 719 270 721 289 c 0
 722 294 722 308 722 321 c 2
 722 344 l 1
 838 344 l 1
 955 344 l 1
 955 320 l 2
 955 292 954 282 950 267 c 0
 942 234 924 213 889 198 c 0
 852 182 799 172 730 169 c 0
 704 168 634 168 609 169 c 0
 539 172 486 182 449 198 c 0
 414 213 396 234 388 267 c 0
 385 280 383 292 383 306 c 0
 383 334 376 359 365 369 c 2
 361 372 l 1
 330 372 l 1
 299 372 l 1
 295 369 l 2
 287 362 280 344 278 325 c 0
 277 320 277 306 277 293 c 2
 277 270 l 1
 160 270 l 1
 44 270 l 1
 44 300 l 2
 45 332 45 339 50 354 c 0
 55 369 65 385 75 393 c 0
 87 404 107 415 129 422 c 0
 166 435 211 442 277 445 c 0
EndSplineSet
EndChar

StartChar: Adieresis
Encoding: 196 196 93
Width: 1043
VWidth: 910
Flags: HW
LayerCount: 2
Fore
SplineSet
330 943 m 0
 372 947 422 941 450 930 c 0
 475 921 482 908 470 896 c 0
 452 878 388 866 332 871 c 0
 266 876 231 896 246 917 c 0
 256 930 289 939 330 943 c 0
656 943 m 0
 698 947 748 941 776 930 c 0
 801 921 808 908 796 896 c 0
 778 878 714 866 658 871 c 0
 592 876 557 896 572 917 c 0
 582 930 615 939 656 943 c 0
371 818 m 0
 371 819 439 819 522 819 c 2
 672 819 l 1
 830 411 l 2
 917 186 988 3 989 2 c 0
 989 0 984 0 873 0 c 2
 756 0 l 1
 747 31 l 2
 742 47 723 112 705 174 c 2
 670 286 l 1
 522 286 l 1
 373 286 l 1
 339 174 l 2
 321 112 301 47 296 31 c 2
 287 0 l 1
 170 0 l 1
 54 0 l 2
 54 1 370 817 371 818 c 0
585 568 m 2
 550 682 522 776 522 776 c 1
 522 776 493 682 458 568 c 2
 395 360 l 1
 459 360 l 1
 584 360 l 1
 648 360 l 1
 585 568 l 2
EndSplineSet
EndChar

StartChar: Ccedilla
Encoding: 199 199 94
Width: 884
VWidth: 910
Flags: HW
LayerCount: 2
Fore
SplineSet
399 824 m 0
 417 825 527 824 550 823 c 0
 613 819 658 814 698 803 c 0
 768 786 802 761 817 714 c 0
 822 699 824 688 824 661 c 2
 824 637 l 1
 703 637 l 1
 582 637 l 1
 586 655 l 2
 591 675 592 677 589 691 c 0
 586 713 575 735 561 743 c 0
 551 748 527 750 469 750 c 0
 420 751 420 751 405 743 c 0
 385 734 370 719 358 697 c 0
 334 657 323 604 318 515 c 0
 316 488 316 331 318 304 c 0
 323 215 334 162 358 122 c 0
 370 100 385 85 405 76 c 0
 420 68 420 68 469 69 c 0
 527 69 551 71 561 76 c 0
 575 84 586 106 589 128 c 0
 592 142 591 144 586 164 c 2
 582 182 l 1
 703 182 l 1
 824 182 l 1
 824 158 l 2
 824 131 822 121 817 106 c 0
 800 54 760 27 672 10 c 0
 657 7 622 2 617 2 c 2
 614 2 l 1
 617 -4 l 2
 626 -25 625 -49 614 -68 c 0
 609 -76 600 -85 591 -90 c 0
 576 -97 586 -96 453 -97 c 0
 352 -97 335 -98 340 -96 c 0
 354 -94 363 -88 372 -79 c 0
 378 -72 383 -65 387 -56 c 0
 391 -45 392 -34 390 -22 c 0
 389 -17 385 -6 384 -5 c 0
 384 -4 376 -3 368 -3 c 0
 269 6 197 32 156 73 c 0
 118 111 94 175 87 266 c 0
 83 304 84 321 84 410 c 0
 84 499 83 515 87 553 c 0
 94 644 118 708 156 746 c 0
 201 791 283 818 399 824 c 0
EndSplineSet
EndChar

StartChar: Odieresis
Encoding: 214 214 95
Width: 1144
VWidth: 910
Flags: HW
LayerCount: 2
Fore
SplineSet
380 943 m 0
 422 947 472 941 500 930 c 0
 525 921 532 908 520 896 c 0
 502 878 438 866 382 871 c 0
 316 876 281 896 296 917 c 0
 306 930 339 939 380 943 c 0
707 943 m 0
 749 947 798 941 826 930 c 0
 851 921 859 908 847 896 c 0
 829 878 765 866 709 871 c 0
 643 876 608 896 623 917 c 0
 633 930 666 939 707 943 c 0
483 824 m 0
 536 826 654 825 698 822 c 0
 859 812 963 773 1019 701 c 0
 1054 655 1074 600 1080 523 c 0
 1083 496 1083 465 1083 410 c 0
 1083 324 1080 281 1072 241 c 0
 1063 191 1045 153 1019 118 c 0
 963 46 859 7 698 -3 c 0
 636 -7 508 -7 447 -3 c 0
 285 7 181 46 125 118 c 0
 84 171 66 233 62 336 c 0
 61 365 61 454 62 484 c 0
 65 564 75 615 99 661 c 0
 135 732 199 776 301 801 c 0
 352 814 411 821 483 824 c 0
641 750 m 0
 616 751 526 751 501 750 c 0
 479 749 462 748 448 744 c 0
 396 733 353 698 328 646 c 0
 308 605 298 558 295 482 c 0
 294 452 294 368 295 339 c 0
 299 249 312 193 341 149 c 0
 366 111 404 85 448 76 c 0
 472 71 501 68 573 68 c 0
 644 68 672 71 696 76 c 0
 748 87 791 121 816 173 c 0
 836 214 846 263 849 339 c 0
 850 368 850 452 849 482 c 0
 845 571 832 626 803 670 c 0
 778 708 740 735 696 744 c 0
 681 748 666 749 641 750 c 0
EndSplineSet
EndChar

StartChar: Udieresis
Encoding: 220 220 96
Width: 985
VWidth: 910
Flags: HW
LayerCount: 2
Fore
SplineSet
301 943 m 0
 343 947 393 941 421 930 c 0
 446 921 453 908 441 896 c 0
 423 878 359 866 303 871 c 0
 237 876 202 896 217 917 c 0
 227 930 260 939 301 943 c 0
628 943 m 0
 670 947 719 941 747 930 c 0
 772 921 779 908 767 896 c 0
 749 878 686 866 630 871 c 0
 564 876 528 896 543 917 c 0
 553 930 587 939 628 943 c 0
88 524 m 2
 88 819 l 1
 205 819 l 1
 321 819 l 1
 321 526 l 2
 322 306 322 230 323 222 c 0
 328 170 336 143 352 118 c 0
 364 101 379 88 395 79 c 0
 415 70 427 68 493 68 c 0
 558 68 571 70 591 79 c 0
 613 91 632 111 643 135 c 0
 653 158 658 181 663 222 c 0
 664 230 663 306 664 526 c 2
 664 819 l 1
 781 819 l 1
 897 819 l 1
 897 524 l 2
 896 303 897 227 896 219 c 0
 893 190 890 173 885 156 c 0
 873 116 852 84 821 61 c 0
 771 23 697 2 584 -4 c 0
 558 -6 427 -6 402 -4 c 0
 288 2 215 23 165 61 c 0
 134 84 113 116 101 156 c 0
 96 173 93 190 90 219 c 0
 89 227 89 303 88 524 c 2
EndSplineSet
EndChar

StartChar: adieresis
Encoding: 228 228 97
Width: 834
VWidth: 910
Flags: HW
LayerCount: 2
Fore
SplineSet
226 738 m 0
 268 742 317 736 345 725 c 0
 370 716 377 703 365 691 c 0
 347 673 284 661 228 666 c 0
 162 671 126 691 141 712 c 0
 151 725 185 734 226 738 c 0
553 738 m 0
 595 742 644 736 672 725 c 0
 697 716 704 703 692 691 c 0
 674 673 610 661 554 666 c 0
 488 671 453 691 468 712 c 0
 478 725 512 734 553 738 c 0
333 619 m 0
 359 620 487 619 504 618 c 0
 565 613 606 607 643 594 c 0
 673 584 699 569 713 554 c 0
 728 538 738 518 743 492 c 0
 744 486 745 478 745 476 c 0
 746 475 746 381 746 237 c 2
 746 0 l 1
 674 0 l 2
 600 1 594 1 574 5 c 0
 569 6 567 6 554 4 c 0
 537 1 513 -2 491 -4 c 0
 468 -6 359 -6 338 -4 c 0
 299 -1 273 3 247 8 c 0
 205 16 172 29 147 47 c 0
 113 71 95 104 90 157 c 0
 88 172 88 238 90 253 c 0
 95 305 113 338 147 362 c 0
 178 384 221 399 278 407 c 0
 311 412 340 414 388 415 c 0
 427 415 446 415 464 412 c 2
 472 411 l 1
 482 414 l 2
 491 418 492 417 497 422 c 0
 502 428 508 440 511 451 c 0
 514 460 513 473 510 488 c 0
 505 510 498 526 487 535 c 0
 480 542 473 544 462 545 c 0
 448 546 379 546 355 545 c 2
 335 544 l 1
 331 542 l 2
 327 538 323 529 322 522 c 0
 321 517 321 515 326 498 c 0
 328 488 329 480 330 479 c 0
 330 478 305 478 209 478 c 2
 88 478 l 1
 88 500 l 2
 88 519 88 524 90 530 c 0
 97 556 117 577 152 591 c 0
 190 606 253 616 333 619 c 0
410 340 m 0
 387 342 376 342 370 339 c 0
 365 337 355 329 350 323 c 0
 336 308 328 287 323 254 c 0
 321 237 321 173 323 156 c 0
 328 115 340 90 361 76 c 0
 372 68 371 69 410 68 c 0
 449 68 450 69 460 75 c 0
 468 80 480 92 485 101 c 0
 500 124 508 150 512 193 c 0
 513 199 512 232 513 270 c 2
 513 337 l 1
 487 336 l 2
 459 336 432 337 410 340 c 0
EndSplineSet
EndChar

StartChar: ccedilla
Encoding: 231 231 98
Width: 834
VWidth: 910
Flags: HW
LayerCount: 2
Fore
SplineSet
376 619 m 0
 389 620 501 619 516 618 c 0
 611 613 674 597 708 573 c 0
 726 560 739 544 744 522 c 0
 746 516 745 512 746 489 c 2
 746 463 l 1
 625 463 l 2
 510 463 504 463 504 465 c 0
 505 466 507 474 510 484 c 0
 514 500 513 502 512 509 c 0
 510 523 505 536 498 542 c 0
 494 545 494 544 484 545 c 2
 434 545 l 2
 388 546 391 546 379 539 c 0
 371 534 356 521 350 511 c 0
 329 480 320 437 317 370 c 0
 316 344 316 270 317 244 c 0
 320 177 329 135 350 104 c 0
 356 94 371 81 379 76 c 0
 391 69 388 68 434 69 c 2
 484 69 l 2
 494 70 494 70 498 73 c 0
 505 79 510 92 512 106 c 0
 513 113 514 114 510 131 c 0
 507 140 505 148 504 149 c 0
 504 151 510 151 625 151 c 2
 746 151 l 1
 746 126 l 2
 745 103 746 99 744 93 c 0
 733 52 703 29 642 14 c 0
 628 10 610 7 598 5 c 0
 593 4 590 4 589 3 c 2
 589 3 590 1 592 -4 c 0
 601 -23 600 -49 589 -68 c 0
 584 -76 574 -85 565 -90 c 0
 550 -97 562 -96 428 -97 c 0
 362 -97 311 -96 313 -96 c 0
 336 -92 354 -77 361 -56 c 0
 366 -41 365 -22 360 -7 c 2
 359 -4 l 1
 348 -4 l 2
 323 -2 290 2 266 7 c 0
 204 20 159 43 134 74 c 0
 107 106 91 149 86 207 c 0
 83 231 83 260 83 308 c 0
 83 356 83 385 86 408 c 0
 91 467 107 509 134 541 c 0
 163 577 218 601 295 612 c 0
 319 616 341 618 376 619 c 0
EndSplineSet
EndChar

StartChar: odieresis
Encoding: 246 246 99
Width: 942
VWidth: 910
Flags: HW
LayerCount: 2
Fore
SplineSet
279 738 m 0
 321 742 371 736 399 725 c 0
 424 716 431 703 419 691 c 0
 401 673 337 661 281 666 c 0
 215 671 180 691 195 712 c 0
 205 725 238 734 279 738 c 0
606 738 m 0
 648 742 697 736 725 725 c 0
 750 716 757 703 745 691 c 0
 727 673 664 661 608 666 c 0
 542 671 507 691 522 712 c 0
 532 725 565 734 606 738 c 0
406 619 m 0
 422 620 551 619 565 618 c 0
 640 613 692 603 735 587 c 0
 815 557 858 510 873 430 c 0
 879 399 880 379 880 308 c 0
 880 246 881 234 877 208 c 0
 869 142 844 93 801 61 c 0
 755 27 687 6 597 -1 c 0
 559 -5 545 -5 471 -5 c 0
 396 -5 383 -5 346 -1 c 0
 231 8 152 40 111 90 c 0
 82 126 68 166 63 233 c 0
 61 251 61 363 63 382 c 0
 68 448 82 488 111 524 c 0
 140 560 191 588 260 603 c 0
 300 612 344 617 406 619 c 0
524 545 m 0
 507 546 433 546 415 545 c 0
 394 544 381 540 366 531 c 0
 358 526 345 515 338 507 c 0
 316 482 303 446 298 396 c 0
 293 354 293 260 298 218 c 0
 303 168 316 132 338 107 c 0
 353 89 375 76 395 72 c 0
 406 69 429 68 471 68 c 0
 512 68 536 69 547 72 c 0
 567 76 589 89 604 107 c 0
 626 132 639 168 644 218 c 0
 649 260 649 354 644 396 c 0
 639 446 626 482 604 507 c 0
 589 525 567 538 547 542 c 0
 542 543 532 544 524 545 c 0
EndSplineSet
EndChar

StartChar: udieresis
Encoding: 252 252 100
Width: 834
VWidth: 910
Flags: HW
LayerCount: 2
Fore
SplineSet
226 738 m 0
 268 742 317 736 345 725 c 0
 370 716 377 703 365 691 c 0
 347 673 284 661 228 666 c 0
 162 671 126 691 141 712 c 0
 151 725 185 734 226 738 c 0
553 738 m 0
 595 742 644 736 672 725 c 0
 697 716 704 703 692 691 c 0
 674 673 610 661 554 666 c 0
 488 671 453 691 468 712 c 0
 478 725 512 734 553 738 c 0
88 436 m 2
 88 614 l 1
 205 614 l 1
 321 614 l 1
 321 424 l 2
 322 236 322 230 325 203 c 0
 332 134 353 90 388 72 c 1
 395 69 l 1
 429 69 l 1
 463 69 l 1
 469 72 l 2
 488 80 502 101 508 130 c 0
 513 153 512 141 513 388 c 2
 513 614 l 1
 630 614 l 1
 746 614 l 1
 746 326 l 1
 746 37 l 1
 749 19 l 2
 750 9 751 0 751 0 c 1
 684 0 l 2
 618 0 601 1 583 4 c 0
 574 5 574 5 559 3 c 0
 543 0 523 -2 499 -4 c 0
 476 -6 374 -6 354 -4 c 0
 260 3 203 20 160 52 c 0
 120 82 97 133 91 209 c 0
 88 235 88 268 88 436 c 2
EndSplineSet
EndChar

StartChar: degree
Encoding: 176 176 101
Width: 695
VWidth: 910
Flags: HW
LayerCount: 2
Fore
SplineSet
292 818 m 0
 307 819 416 818 429 817 c 0
 479 813 509 808 542 799 c 0
 573 790 601 777 616 762 c 0
 636 744 648 715 651 679 c 0
 653 663 652 631 650 617 c 0
 645 587 633 562 616 547 c 0
 587 520 531 501 456 494 c 0
 422 490 411 491 348 491 c 0
 285 491 273 490 240 494 c 0
 164 501 108 520 79 547 c 0
 62 562 51 587 46 617 c 0
 44 631 43 663 45 679 c 0
 48 715 59 744 79 762 c 0
 94 777 122 790 153 799 c 0
 191 810 232 815 292 818 c 0
390 743 m 2
 386 745 l 1
 350 745 l 2
 330 745 312 745 310 745 c 0
 295 741 284 719 279 689 c 0
 277 674 277 636 279 621 c 0
 284 594 292 574 306 566 c 2
 310 564 l 1
 348 564 l 1
 386 564 l 1
 390 566 l 2
 404 574 412 594 417 621 c 0
 419 636 419 674 417 689 c 0
 412 715 404 735 390 743 c 2
EndSplineSet
EndChar

StartChar: grave
Encoding: 96 96 102
Width: 253
VWidth: 910
Flags: HW
LayerCount: 2
Fore
SplineSet
116 819 m 0
 118 820 127 820 137 820 c 0
 187 820 237 812 269 797 c 0
 303 781 319 762 330 729 c 0
 341 696 344 661 344 583 c 2
 344 543 l 1
 228 543 l 1
 111 543 l 1
 111 582 l 2
 111 649 108 684 101 712 c 0
 97 725 94 735 89 742 c 0
 85 747 85 748 80 748 c 0
 44 753 18 764 12 776 c 0
 9 781 9 783 12 788 c 0
 15 793 20 797 28 802 c 0
 47 811 73 816 116 819 c 0
EndSplineSet
EndChar

StartChar: quotesingle
Encoding: 39 39 103
Width: 202
VWidth: 910
Flags: HW
LayerCount: 2
Fore
SplineSet
-15 718 m 1
 -15 819 l 1
 101 819 l 1
 218 819 l 1
 218 718 l 1
 218 617 l 1
 101 617 l 1
 -15 617 l 1
 -15 718 l 1
EndSplineSet
EndChar
